<svg width="375" height="692" viewBox="0 0 375 692" fill="none" xmlns="http://www.w3.org/2000/svg">
<rect width="375" height="692" rx="12" fill="#3B5998"/>
<path d="M129.464 286.607V188.393C129.464 186.025 130.405 183.754 132.079 182.079C133.753 180.405 136.024 179.464 138.392 179.464H236.607C238.975 179.464 241.246 180.405 242.92 182.079C244.595 183.754 245.535 186.025 245.535 188.393V286.607C245.535 288.975 244.595 291.246 242.92 292.921C241.246 294.595 238.975 295.536 236.607 295.536H209.821V253.214H216.16C217.605 253.214 218.99 252.641 220.012 251.619C221.033 250.598 221.607 249.212 221.607 247.768V240.893C221.607 240.178 221.466 239.469 221.192 238.809C220.918 238.148 220.517 237.547 220.012 237.042C219.506 236.536 218.905 236.135 218.245 235.861C217.584 235.587 216.876 235.446 216.16 235.446H210.178V227.054C210.178 219.554 213.571 219.554 216.964 219.554H221.339C222.057 219.583 222.774 219.455 223.437 219.177C224.101 218.899 224.695 218.479 225.178 217.946C225.697 217.453 226.108 216.856 226.384 216.195C226.661 215.535 226.798 214.824 226.785 214.107V207.5C226.809 206.773 226.689 206.048 226.433 205.368C226.177 204.687 225.789 204.063 225.291 203.533C224.794 203.002 224.196 202.574 223.533 202.275C222.871 201.975 222.155 201.809 221.428 201.786H211.16C208.164 201.673 205.18 202.212 202.412 203.366C199.645 204.519 197.161 206.26 195.132 208.467C193.103 210.674 191.577 213.296 190.66 216.15C189.743 219.005 189.457 222.024 189.821 225V235.446H184.107C183.384 235.435 182.666 235.567 181.995 235.835C181.324 236.104 180.713 236.503 180.198 237.01C179.682 237.517 179.273 238.121 178.994 238.788C178.715 239.455 178.571 240.17 178.571 240.893V247.768C178.571 248.491 178.715 249.206 178.994 249.873C179.273 250.54 179.682 251.144 180.198 251.651C180.713 252.158 181.324 252.557 181.995 252.826C182.666 253.094 183.384 253.226 184.107 253.214H189.821V295.536H138.392C136.024 295.536 133.753 294.595 132.079 292.921C130.405 291.246 129.464 288.975 129.464 286.607Z" stroke="white" stroke-width="4" stroke-linecap="round" stroke-linejoin="round"/>
<path d="M117.171 478.908V481.572H106.263V490.032H115.119V492.696H106.263V504H102.987V478.908H117.171ZM119.903 494.064C119.903 492.048 120.311 490.284 121.127 488.772C121.943 487.236 123.059 486.048 124.475 485.208C125.915 484.368 127.511 483.948 129.263 483.948C130.991 483.948 132.491 484.32 133.763 485.064C135.035 485.808 135.983 486.744 136.607 487.872V484.272H139.919V504H136.607V500.328C135.959 501.48 134.987 502.44 133.691 503.208C132.419 503.952 130.931 504.324 129.227 504.324C127.475 504.324 125.891 503.892 124.475 503.028C123.059 502.164 121.943 500.952 121.127 499.392C120.311 497.832 119.903 496.056 119.903 494.064ZM136.607 494.1C136.607 492.612 136.307 491.316 135.707 490.212C135.107 489.108 134.291 488.268 133.259 487.692C132.251 487.092 131.135 486.792 129.911 486.792C128.687 486.792 127.571 487.08 126.563 487.656C125.555 488.232 124.751 489.072 124.151 490.176C123.551 491.28 123.251 492.576 123.251 494.064C123.251 495.576 123.551 496.896 124.151 498.024C124.751 499.128 125.555 499.98 126.563 500.58C127.571 501.156 128.687 501.444 129.911 501.444C131.135 501.444 132.251 501.156 133.259 500.58C134.291 499.98 135.107 499.128 135.707 498.024C136.307 496.896 136.607 495.588 136.607 494.1ZM144.232 494.1C144.232 492.06 144.64 490.284 145.456 488.772C146.272 487.236 147.4 486.048 148.84 485.208C150.304 484.368 151.972 483.948 153.844 483.948C156.268 483.948 158.26 484.536 159.82 485.712C161.404 486.888 162.448 488.52 162.952 490.608H159.424C159.088 489.408 158.428 488.46 157.444 487.764C156.484 487.068 155.284 486.72 153.844 486.72C151.972 486.72 150.46 487.368 149.308 488.664C148.156 489.936 147.58 491.748 147.58 494.1C147.58 496.476 148.156 498.312 149.308 499.608C150.46 500.904 151.972 501.552 153.844 501.552C155.284 501.552 156.484 501.216 157.444 500.544C158.404 499.872 159.064 498.912 159.424 497.664H162.952C162.424 499.68 161.368 501.3 159.784 502.524C158.2 503.724 156.22 504.324 153.844 504.324C151.972 504.324 150.304 503.904 148.84 503.064C147.4 502.224 146.272 501.036 145.456 499.5C144.64 497.964 144.232 496.164 144.232 494.1ZM185.323 493.38C185.323 494.004 185.287 494.664 185.215 495.36H169.447C169.567 497.304 170.227 498.828 171.427 499.932C172.651 501.012 174.127 501.552 175.855 501.552C177.271 501.552 178.447 501.228 179.383 500.58C180.343 499.908 181.015 499.02 181.399 497.916H184.927C184.399 499.812 183.343 501.36 181.759 502.56C180.175 503.736 178.207 504.324 175.855 504.324C173.983 504.324 172.303 503.904 170.815 503.064C169.351 502.224 168.199 501.036 167.359 499.5C166.519 497.94 166.099 496.14 166.099 494.1C166.099 492.06 166.507 490.272 167.323 488.736C168.139 487.2 169.279 486.024 170.743 485.208C172.231 484.368 173.935 483.948 175.855 483.948C177.727 483.948 179.383 484.356 180.823 485.172C182.263 485.988 183.367 487.116 184.135 488.556C184.927 489.972 185.323 491.58 185.323 493.38ZM181.939 492.696C181.939 491.448 181.663 490.38 181.111 489.492C180.559 488.58 179.803 487.896 178.843 487.44C177.907 486.96 176.863 486.72 175.711 486.72C174.055 486.72 172.639 487.248 171.463 488.304C170.311 489.36 169.651 490.824 169.483 492.696H181.939ZM192.923 487.944C193.595 486.768 194.579 485.808 195.875 485.064C197.171 484.32 198.647 483.948 200.303 483.948C202.079 483.948 203.675 484.368 205.091 485.208C206.507 486.048 207.623 487.236 208.439 488.772C209.255 490.284 209.663 492.048 209.663 494.064C209.663 496.056 209.255 497.832 208.439 499.392C207.623 500.952 206.495 502.164 205.055 503.028C203.639 503.892 202.055 504.324 200.303 504.324C198.599 504.324 197.099 503.952 195.803 503.208C194.531 502.464 193.571 501.516 192.923 500.364V504H189.647V477.36H192.923V487.944ZM206.315 494.064C206.315 492.576 206.015 491.28 205.415 490.176C204.815 489.072 203.999 488.232 202.967 487.656C201.959 487.08 200.843 486.792 199.619 486.792C198.419 486.792 197.303 487.092 196.271 487.692C195.263 488.268 194.447 489.12 193.823 490.248C193.223 491.352 192.923 492.636 192.923 494.1C192.923 495.588 193.223 496.896 193.823 498.024C194.447 499.128 195.263 499.98 196.271 500.58C197.303 501.156 198.419 501.444 199.619 501.444C200.843 501.444 201.959 501.156 202.967 500.58C203.999 499.98 204.815 499.128 205.415 498.024C206.015 496.896 206.315 495.576 206.315 494.064ZM222.579 504.324C220.731 504.324 219.051 503.904 217.539 503.064C216.051 502.224 214.875 501.036 214.011 499.5C213.171 497.94 212.751 496.14 212.751 494.1C212.751 492.084 213.183 490.308 214.047 488.772C214.935 487.212 216.135 486.024 217.647 485.208C219.159 484.368 220.851 483.948 222.723 483.948C224.595 483.948 226.287 484.368 227.799 485.208C229.311 486.024 230.499 487.2 231.363 488.736C232.251 490.272 232.695 492.06 232.695 494.1C232.695 496.14 232.239 497.94 231.327 499.5C230.439 501.036 229.227 502.224 227.691 503.064C226.155 503.904 224.451 504.324 222.579 504.324ZM222.579 501.444C223.755 501.444 224.859 501.168 225.891 500.616C226.923 500.064 227.751 499.236 228.375 498.132C229.023 497.028 229.347 495.684 229.347 494.1C229.347 492.516 229.035 491.172 228.411 490.068C227.787 488.964 226.971 488.148 225.963 487.62C224.955 487.068 223.863 486.792 222.687 486.792C221.487 486.792 220.383 487.068 219.375 487.62C218.391 488.148 217.599 488.964 216.999 490.068C216.399 491.172 216.099 492.516 216.099 494.1C216.099 495.708 216.387 497.064 216.963 498.168C217.563 499.272 218.355 500.1 219.339 500.652C220.323 501.18 221.403 501.444 222.579 501.444ZM245.606 504.324C243.758 504.324 242.078 503.904 240.566 503.064C239.078 502.224 237.902 501.036 237.038 499.5C236.198 497.94 235.778 496.14 235.778 494.1C235.778 492.084 236.21 490.308 237.074 488.772C237.962 487.212 239.162 486.024 240.674 485.208C242.186 484.368 243.878 483.948 245.75 483.948C247.622 483.948 249.314 484.368 250.826 485.208C252.338 486.024 253.526 487.2 254.39 488.736C255.278 490.272 255.722 492.06 255.722 494.1C255.722 496.14 255.266 497.94 254.354 499.5C253.466 501.036 252.254 502.224 250.718 503.064C249.182 503.904 247.478 504.324 245.606 504.324ZM245.606 501.444C246.782 501.444 247.886 501.168 248.918 500.616C249.95 500.064 250.778 499.236 251.402 498.132C252.05 497.028 252.374 495.684 252.374 494.1C252.374 492.516 252.062 491.172 251.438 490.068C250.814 488.964 249.998 488.148 248.99 487.62C247.982 487.068 246.89 486.792 245.714 486.792C244.514 486.792 243.41 487.068 242.402 487.62C241.418 488.148 240.626 488.964 240.026 490.068C239.426 491.172 239.126 492.516 239.126 494.1C239.126 495.708 239.414 497.064 239.99 498.168C240.59 499.272 241.382 500.1 242.366 500.652C243.35 501.18 244.43 501.444 245.606 501.444ZM271.046 504L263.306 495.288V504H260.03V477.36H263.306V493.02L270.902 484.272H275.474L266.186 494.1L275.51 504H271.046Z" fill="white"/>
</svg>
