<svg width="375" height="692" viewBox="0 0 375 692" fill="none" xmlns="http://www.w3.org/2000/svg">
<rect width="375" height="692" rx="12" fill="#4285F4"/>
<path d="M226.428 223.722H204.196C203.591 223.722 202.991 223.835 202.433 224.054C201.874 224.274 201.368 224.595 200.944 225C200.52 225.404 200.187 225.884 199.963 226.411C199.74 226.938 199.631 227.501 199.643 228.068V239.851C199.643 240.982 200.122 242.066 200.976 242.865C201.83 243.664 202.988 244.113 204.196 244.113H215.714C215.779 247.344 215.115 250.55 213.766 253.524C212.417 256.498 210.414 259.172 207.886 261.372C205.358 263.573 202.364 265.249 199.097 266.293C195.831 267.337 192.366 267.724 188.928 267.43C168.928 267.43 159.285 251.551 159.285 233.5C159.285 215.448 169.643 199.57 188.928 199.57C197.443 199.305 205.786 201.849 212.5 206.757C213.036 207.086 213.644 207.3 214.279 207.385C214.914 207.469 215.561 207.422 216.174 207.247C216.787 207.071 217.352 206.772 217.828 206.37C218.304 205.967 218.68 205.472 218.928 204.918L224.553 192.884C225.016 191.997 225.135 190.987 224.891 190.027C224.647 189.067 224.054 188.216 223.214 187.619C212.975 181.889 201.211 178.991 189.285 179.262C156.785 179.178 134.643 202.829 134.643 233.5C134.643 264.171 156.875 287.821 188.928 287.821C220.982 287.821 240.357 266.427 240.357 237.678C240.357 228.486 236.428 223.722 226.428 223.722Z" stroke="white" stroke-width="4" stroke-linecap="round" stroke-linejoin="round"/>
<path d="M144.78 486.18C144.084 484.716 143.076 483.588 141.756 482.796C140.436 481.98 138.9 481.572 137.148 481.572C135.396 481.572 133.812 481.98 132.396 482.796C131.004 483.588 129.9 484.74 129.084 486.252C128.292 487.74 127.896 489.468 127.896 491.436C127.896 493.404 128.292 495.132 129.084 496.62C129.9 498.108 131.004 499.26 132.396 500.076C133.812 500.868 135.396 501.264 137.148 501.264C139.596 501.264 141.612 500.532 143.196 499.068C144.78 497.604 145.704 495.624 145.968 493.128H135.96V490.464H149.46V492.984C149.268 495.048 148.62 496.944 147.516 498.672C146.412 500.376 144.96 501.732 143.16 502.74C141.36 503.724 139.356 504.216 137.148 504.216C134.82 504.216 132.696 503.676 130.776 502.596C128.856 501.492 127.332 499.968 126.204 498.024C125.1 496.08 124.548 493.884 124.548 491.436C124.548 488.988 125.1 486.792 126.204 484.848C127.332 482.88 128.856 481.356 130.776 480.276C132.696 479.172 134.82 478.62 137.148 478.62C139.812 478.62 142.164 479.28 144.204 480.6C146.268 481.92 147.768 483.78 148.704 486.18H144.78ZM162.396 504.324C160.548 504.324 158.868 503.904 157.356 503.064C155.868 502.224 154.692 501.036 153.828 499.5C152.988 497.94 152.568 496.14 152.568 494.1C152.568 492.084 153 490.308 153.864 488.772C154.752 487.212 155.952 486.024 157.464 485.208C158.976 484.368 160.668 483.948 162.54 483.948C164.412 483.948 166.104 484.368 167.616 485.208C169.128 486.024 170.316 487.2 171.18 488.736C172.068 490.272 172.512 492.06 172.512 494.1C172.512 496.14 172.056 497.94 171.144 499.5C170.256 501.036 169.044 502.224 167.508 503.064C165.972 503.904 164.268 504.324 162.396 504.324ZM162.396 501.444C163.572 501.444 164.676 501.168 165.708 500.616C166.74 500.064 167.568 499.236 168.192 498.132C168.84 497.028 169.164 495.684 169.164 494.1C169.164 492.516 168.852 491.172 168.228 490.068C167.604 488.964 166.788 488.148 165.78 487.62C164.772 487.068 163.68 486.792 162.504 486.792C161.304 486.792 160.2 487.068 159.192 487.62C158.208 488.148 157.416 488.964 156.816 490.068C156.216 491.172 155.916 492.516 155.916 494.1C155.916 495.708 156.204 497.064 156.78 498.168C157.38 499.272 158.172 500.1 159.156 500.652C160.14 501.18 161.22 501.444 162.396 501.444ZM185.423 504.324C183.575 504.324 181.895 503.904 180.383 503.064C178.895 502.224 177.719 501.036 176.855 499.5C176.015 497.94 175.595 496.14 175.595 494.1C175.595 492.084 176.027 490.308 176.891 488.772C177.779 487.212 178.979 486.024 180.491 485.208C182.003 484.368 183.695 483.948 185.567 483.948C187.439 483.948 189.131 484.368 190.643 485.208C192.155 486.024 193.343 487.2 194.207 488.736C195.095 490.272 195.539 492.06 195.539 494.1C195.539 496.14 195.083 497.94 194.171 499.5C193.283 501.036 192.071 502.224 190.535 503.064C188.999 503.904 187.295 504.324 185.423 504.324ZM185.423 501.444C186.599 501.444 187.703 501.168 188.735 500.616C189.767 500.064 190.595 499.236 191.219 498.132C191.867 497.028 192.191 495.684 192.191 494.1C192.191 492.516 191.879 491.172 191.255 490.068C190.631 488.964 189.815 488.148 188.807 487.62C187.799 487.068 186.707 486.792 185.531 486.792C184.331 486.792 183.227 487.068 182.219 487.62C181.235 488.148 180.443 488.964 179.843 490.068C179.243 491.172 178.943 492.516 178.943 494.1C178.943 495.708 179.231 497.064 179.807 498.168C180.407 499.272 181.199 500.1 182.183 500.652C183.167 501.18 184.247 501.444 185.423 501.444ZM207.982 483.948C209.686 483.948 211.174 484.32 212.446 485.064C213.742 485.808 214.702 486.744 215.326 487.872V484.272H218.638V504.432C218.638 506.232 218.254 507.828 217.486 509.22C216.718 510.636 215.614 511.74 214.174 512.532C212.758 513.324 211.102 513.72 209.206 513.72C206.614 513.72 204.454 513.108 202.726 511.884C200.998 510.66 199.978 508.992 199.666 506.88H202.906C203.266 508.08 204.01 509.04 205.138 509.76C206.266 510.504 207.622 510.876 209.206 510.876C211.006 510.876 212.47 510.312 213.598 509.184C214.75 508.056 215.326 506.472 215.326 504.432V500.292C214.678 501.444 213.718 502.404 212.446 503.172C211.174 503.94 209.686 504.324 207.982 504.324C206.23 504.324 204.634 503.892 203.194 503.028C201.778 502.164 200.662 500.952 199.846 499.392C199.03 497.832 198.622 496.056 198.622 494.064C198.622 492.048 199.03 490.284 199.846 488.772C200.662 487.236 201.778 486.048 203.194 485.208C204.634 484.368 206.23 483.948 207.982 483.948ZM215.326 494.1C215.326 492.612 215.026 491.316 214.426 490.212C213.826 489.108 213.01 488.268 211.978 487.692C210.97 487.092 209.854 486.792 208.63 486.792C207.406 486.792 206.29 487.08 205.282 487.656C204.274 488.232 203.47 489.072 202.87 490.176C202.27 491.28 201.97 492.576 201.97 494.064C201.97 495.576 202.27 496.896 202.87 498.024C203.47 499.128 204.274 499.98 205.282 500.58C206.29 501.156 207.406 501.444 208.63 501.444C209.854 501.444 210.97 501.156 211.978 500.58C213.01 499.98 213.826 499.128 214.426 498.024C215.026 496.896 215.326 495.588 215.326 494.1ZM227.45 477.36V504H224.174V477.36H227.45ZM251.034 493.38C251.034 494.004 250.998 494.664 250.926 495.36H235.158C235.278 497.304 235.938 498.828 237.138 499.932C238.362 501.012 239.838 501.552 241.566 501.552C242.982 501.552 244.158 501.228 245.094 500.58C246.054 499.908 246.726 499.02 247.11 497.916H250.638C250.11 499.812 249.054 501.36 247.47 502.56C245.886 503.736 243.918 504.324 241.566 504.324C239.694 504.324 238.014 503.904 236.526 503.064C235.062 502.224 233.91 501.036 233.07 499.5C232.23 497.94 231.81 496.14 231.81 494.1C231.81 492.06 232.218 490.272 233.034 488.736C233.85 487.2 234.99 486.024 236.454 485.208C237.942 484.368 239.646 483.948 241.566 483.948C243.438 483.948 245.094 484.356 246.534 485.172C247.974 485.988 249.078 487.116 249.846 488.556C250.638 489.972 251.034 491.58 251.034 493.38ZM247.65 492.696C247.65 491.448 247.374 490.38 246.822 489.492C246.27 488.58 245.514 487.896 244.554 487.44C243.618 486.96 242.574 486.72 241.422 486.72C239.766 486.72 238.35 487.248 237.174 488.304C236.022 489.36 235.362 490.824 235.194 492.696H247.65Z" fill="white"/>
</svg>
