<svg width="375" height="692" viewBox="0 0 375 692" fill="none" xmlns="http://www.w3.org/2000/svg">
<rect width="375" height="692" rx="12" fill="#FF0000"/>
<path d="M230.769 186H144.231C133.61 186 125 194.61 125 205.231V262.923C125 273.544 133.61 282.154 144.231 282.154H230.769C241.39 282.154 250 273.544 250 262.923V205.231C250 194.61 241.39 186 230.769 186Z" stroke="white" stroke-width="4" stroke-linecap="round" stroke-linejoin="round"/>
<path d="M171.248 256.385V216C171.228 215.318 171.394 214.644 171.729 214.049C172.063 213.455 172.554 212.963 173.147 212.627C173.741 212.291 174.415 212.123 175.097 212.141C175.778 212.159 176.442 212.363 177.017 212.731L211.632 232.923C212.211 233.262 212.69 233.747 213.024 234.329C213.357 234.911 213.532 235.57 213.532 236.24C213.532 236.911 213.357 237.57 213.024 238.152C212.69 238.734 212.211 239.218 211.632 239.558L177.017 259.75C176.43 260.089 175.763 260.267 175.085 260.265C174.407 260.264 173.741 260.083 173.156 259.741C172.57 259.4 172.085 258.909 171.75 258.32C171.415 257.73 171.242 257.063 171.248 256.385V256.385Z" stroke="white" stroke-width="4" stroke-linecap="round" stroke-linejoin="round"/>
<path d="M133.34 478.908L125.168 494.532V504H121.892V494.532L113.684 478.908H117.32L123.512 491.616L129.704 478.908H133.34ZM145.399 504.324C143.551 504.324 141.871 503.904 140.359 503.064C138.871 502.224 137.695 501.036 136.831 499.5C135.991 497.94 135.571 496.14 135.571 494.1C135.571 492.084 136.003 490.308 136.867 488.772C137.755 487.212 138.955 486.024 140.467 485.208C141.979 484.368 143.671 483.948 145.543 483.948C147.415 483.948 149.107 484.368 150.619 485.208C152.131 486.024 153.319 487.2 154.183 488.736C155.071 490.272 155.515 492.06 155.515 494.1C155.515 496.14 155.059 497.94 154.147 499.5C153.259 501.036 152.047 502.224 150.511 503.064C148.975 503.904 147.271 504.324 145.399 504.324ZM145.399 501.444C146.575 501.444 147.679 501.168 148.711 500.616C149.743 500.064 150.571 499.236 151.195 498.132C151.843 497.028 152.167 495.684 152.167 494.1C152.167 492.516 151.855 491.172 151.231 490.068C150.607 488.964 149.791 488.148 148.783 487.62C147.775 487.068 146.683 486.792 145.507 486.792C144.307 486.792 143.203 487.068 142.195 487.62C141.211 488.148 140.419 488.964 139.819 490.068C139.219 491.172 138.919 492.516 138.919 494.1C138.919 495.708 139.207 497.064 139.783 498.168C140.383 499.272 141.175 500.1 142.159 500.652C143.143 501.18 144.223 501.444 145.399 501.444ZM177.319 484.272V504H174.043V501.084C173.419 502.092 172.543 502.884 171.415 503.46C170.311 504.012 169.087 504.288 167.743 504.288C166.207 504.288 164.827 503.976 163.603 503.352C162.379 502.704 161.407 501.744 160.687 500.472C159.991 499.2 159.643 497.652 159.643 495.828V484.272H162.883V495.396C162.883 497.34 163.375 498.84 164.359 499.896C165.343 500.928 166.687 501.444 168.391 501.444C170.143 501.444 171.523 500.904 172.531 499.824C173.539 498.744 174.043 497.172 174.043 495.108V484.272H177.319ZM186.846 486.972V498.6C186.846 499.56 187.05 500.244 187.458 500.652C187.866 501.036 188.574 501.228 189.582 501.228H191.994V504H189.042C187.218 504 185.85 503.58 184.938 502.74C184.026 501.9 183.57 500.52 183.57 498.6V486.972H181.014V484.272H183.57V479.304H186.846V484.272H191.994V486.972H186.846ZM213.459 484.272V504H210.183V501.084C209.559 502.092 208.683 502.884 207.555 503.46C206.451 504.012 205.227 504.288 203.883 504.288C202.347 504.288 200.967 503.976 199.743 503.352C198.519 502.704 197.547 501.744 196.827 500.472C196.131 499.2 195.783 497.652 195.783 495.828V484.272H199.023V495.396C199.023 497.34 199.515 498.84 200.499 499.896C201.483 500.928 202.827 501.444 204.531 501.444C206.283 501.444 207.663 500.904 208.671 499.824C209.679 498.744 210.183 497.172 210.183 495.108V484.272H213.459ZM222.267 487.944C222.939 486.768 223.923 485.808 225.219 485.064C226.515 484.32 227.991 483.948 229.647 483.948C231.423 483.948 233.019 484.368 234.435 485.208C235.851 486.048 236.967 487.236 237.783 488.772C238.599 490.284 239.007 492.048 239.007 494.064C239.007 496.056 238.599 497.832 237.783 499.392C236.967 500.952 235.839 502.164 234.399 503.028C232.983 503.892 231.399 504.324 229.647 504.324C227.943 504.324 226.443 503.952 225.147 503.208C223.875 502.464 222.915 501.516 222.267 500.364V504H218.991V477.36H222.267V487.944ZM235.659 494.064C235.659 492.576 235.359 491.28 234.759 490.176C234.159 489.072 233.343 488.232 232.311 487.656C231.303 487.08 230.187 486.792 228.963 486.792C227.763 486.792 226.647 487.092 225.615 487.692C224.607 488.268 223.791 489.12 223.167 490.248C222.567 491.352 222.267 492.636 222.267 494.1C222.267 495.588 222.567 496.896 223.167 498.024C223.791 499.128 224.607 499.98 225.615 500.58C226.647 501.156 227.763 501.444 228.963 501.444C230.187 501.444 231.303 501.156 232.311 500.58C233.343 499.98 234.159 499.128 234.759 498.024C235.359 496.896 235.659 495.576 235.659 494.064ZM261.319 493.38C261.319 494.004 261.283 494.664 261.211 495.36H245.443C245.563 497.304 246.223 498.828 247.423 499.932C248.647 501.012 250.123 501.552 251.851 501.552C253.267 501.552 254.443 501.228 255.379 500.58C256.339 499.908 257.011 499.02 257.395 497.916H260.923C260.395 499.812 259.339 501.36 257.755 502.56C256.171 503.736 254.203 504.324 251.851 504.324C249.979 504.324 248.299 503.904 246.811 503.064C245.347 502.224 244.195 501.036 243.355 499.5C242.515 497.94 242.095 496.14 242.095 494.1C242.095 492.06 242.503 490.272 243.319 488.736C244.135 487.2 245.275 486.024 246.739 485.208C248.227 484.368 249.931 483.948 251.851 483.948C253.723 483.948 255.379 484.356 256.819 485.172C258.259 485.988 259.363 487.116 260.131 488.556C260.923 489.972 261.319 491.58 261.319 493.38ZM257.935 492.696C257.935 491.448 257.659 490.38 257.107 489.492C256.555 488.58 255.799 487.896 254.839 487.44C253.903 486.96 252.859 486.72 251.707 486.72C250.051 486.72 248.635 487.248 247.459 488.304C246.307 489.36 245.647 490.824 245.479 492.696H257.935Z" fill="white"/>
</svg>
