<svg width="143" height="44" viewBox="0 0 143 44" fill="none" xmlns="http://www.w3.org/2000/svg">
<g clip-path="url(#clip0_575_989)">
<path fill-rule="evenodd" clip-rule="evenodd" d="M89.0621 33.8293C80.8053 39.9081 68.8375 43.1513 58.5336 43.1513C44.0857 43.1513 31.0789 37.8139 21.2388 28.9366C20.4657 28.2386 21.1584 27.2872 22.0861 27.8308C32.7055 34.0023 45.836 37.715 59.3994 37.715C68.5469 37.715 78.6096 35.8247 87.8622 31.9019C89.26 31.3088 90.4289 32.8162 89.0621 33.8293Z" fill="#E2E2E2"/>
<path fill-rule="evenodd" clip-rule="evenodd" d="M92.4944 29.9065C91.443 28.5598 85.5179 29.2702 82.8584 29.5852C82.0482 29.6841 81.9245 28.9798 82.6543 28.4733C87.3734 25.1559 95.1168 26.1134 96.0198 27.2254C96.9228 28.3435 95.7848 36.0964 91.3502 39.7968C90.6699 40.3652 90.0205 40.0625 90.3236 39.3088C91.3193 36.8254 93.5521 31.2594 92.4944 29.9065Z" fill="#E2E2E2"/>
<path fill-rule="evenodd" clip-rule="evenodd" d="M83.0443 5.05407V1.82936C83.0443 1.34133 83.4154 1.01392 83.8607 1.01392H98.3147C98.7786 1.01392 99.1497 1.34751 99.1497 1.82936V4.59075C99.1435 5.05407 98.7538 5.65947 98.0611 6.617L90.5712 17.2981C93.3544 17.2301 96.2922 17.644 98.8157 19.0649C99.3847 19.3861 99.5393 19.8556 99.5826 20.3189V23.7598C99.5826 24.2293 99.0631 24.7791 98.5188 24.495C94.0719 22.166 88.1653 21.9127 83.2484 24.5197C82.7474 24.7915 82.2217 24.2479 82.2217 23.7784V20.5104C82.2217 19.9853 82.2279 19.0896 82.7536 18.2927L91.4309 5.86333H83.8792C83.4154 5.86333 83.0443 5.53592 83.0443 5.05407Z" fill="#E2E2E2"/>
<path fill-rule="evenodd" clip-rule="evenodd" d="M30.3179 25.1743H25.9205C25.4999 25.1435 25.1659 24.8284 25.135 24.4268V1.8848C25.135 1.43383 25.5123 1.07553 25.9823 1.07553H30.0829C30.5097 1.09405 30.8498 1.42147 30.8808 1.8292V4.77591H30.9612C32.0311 1.92804 34.0412 0.599854 36.7502 0.599854C39.5025 0.599854 41.2219 1.92804 42.4588 4.77591C43.5226 1.92804 45.9409 0.599854 48.5324 0.599854C50.3755 0.599854 52.3917 1.3597 53.6225 3.06472C55.0141 4.96124 54.7296 7.71645 54.7296 10.1319L54.7234 24.3589C54.7234 24.8099 54.3461 25.1743 53.8761 25.1743H49.4848C49.0457 25.1435 48.6932 24.7913 48.6932 24.3589V12.4114C48.6932 11.4601 48.7798 9.08788 48.5695 8.18594C48.2417 6.67244 47.2583 6.24618 45.9842 6.24618C44.9204 6.24618 43.8071 6.9566 43.3556 8.09328C42.9041 9.22996 42.9474 11.1327 42.9474 12.4114V24.3589C42.9474 24.8099 42.5702 25.1743 42.1001 25.1743H37.7089C37.2635 25.1435 36.9172 24.7913 36.9172 24.3589L36.911 12.4114C36.911 9.89714 37.3254 6.19676 34.202 6.19676C31.0416 6.19676 31.1653 9.80447 31.1653 12.4114V24.3589C31.1653 24.8099 30.788 25.1743 30.3179 25.1743" fill="#E2E2E2"/>
<path fill-rule="evenodd" clip-rule="evenodd" d="M111.594 0.599854C118.119 0.599854 121.65 6.19676 121.65 13.3134C121.65 20.189 117.747 25.6438 111.594 25.6438C105.186 25.6438 101.698 20.0469 101.698 13.0724C101.698 6.05467 105.229 0.599854 111.594 0.599854ZM111.631 5.20217C108.39 5.20217 108.186 9.61297 108.186 12.362C108.186 15.1172 108.142 20.9983 111.594 20.9983C115.001 20.9983 115.162 16.2539 115.162 13.3628C115.162 11.4601 115.082 9.18672 114.507 7.38286C114.012 5.81375 113.028 5.20217 111.631 5.20217Z" fill="#E2E2E2"/>
<path fill-rule="evenodd" clip-rule="evenodd" d="M130.111 25.1743H125.732C125.293 25.1435 124.941 24.7913 124.941 24.3589L124.934 1.81066C124.971 1.39676 125.336 1.07553 125.782 1.07553H129.857C130.241 1.09405 130.556 1.35352 130.643 1.70565V5.15274H130.723C131.954 2.07012 133.68 0.599854 136.716 0.599854C138.689 0.599854 140.613 1.31028 141.85 3.25622C143 5.06008 143 8.09328 143 10.274V24.4639C142.951 24.8593 142.586 25.1743 142.153 25.1743H137.743C137.341 25.1435 137.007 24.8469 136.964 24.4639V12.2199C136.964 9.75506 137.248 6.14734 134.212 6.14734C133.142 6.14734 132.158 6.86394 131.67 7.9512C131.051 9.3288 130.971 10.7002 130.971 12.2199V24.3589C130.965 24.8099 130.581 25.1743 130.111 25.1743" fill="#E2E2E2"/>
<path fill-rule="evenodd" clip-rule="evenodd" d="M71.5215 14.4069C71.5215 16.1181 71.5648 17.5452 70.6989 19.0649C70 20.3004 68.8868 21.0602 67.656 21.0602C65.9675 21.0602 64.9779 19.7753 64.9779 17.8788C64.9779 14.1351 68.3363 13.4556 71.5215 13.4556V14.4069ZM75.9561 25.1127C75.6654 25.3722 75.2448 25.3907 74.917 25.2178C73.4574 24.0069 73.1914 23.4448 72.3936 22.2896C69.9815 24.7483 68.2683 25.4834 65.1449 25.4834C61.4402 25.4834 58.5642 23.2039 58.5642 18.6386C58.5642 15.0741 60.4939 12.6463 63.2523 11.4602C65.6397 10.41 68.9733 10.2247 71.5215 9.93437V9.36602C71.5215 8.32201 71.6019 7.08649 70.9834 6.18456C70.4515 5.37529 69.4248 5.0417 68.5157 5.0417C66.8396 5.0417 65.349 5.90039 64.9841 7.67954C64.9099 8.07491 64.6192 8.4641 64.2172 8.48263L59.9558 8.02548C59.5971 7.94518 59.1951 7.65483 59.3002 7.10502C60.2774 1.94055 64.9532 0.383789 69.1341 0.383789C71.2741 0.383789 74.0697 0.95213 75.7581 2.57066C77.8981 4.56603 77.694 7.22857 77.694 10.1259V16.9707C77.694 19.0278 78.5475 19.9297 79.3515 21.0417C79.6299 21.4371 79.6917 21.9127 79.333 22.2093C78.4362 22.9568 76.8405 24.3467 75.9622 25.1251L75.956 25.1127" fill="#E2E2E2"/>
<path fill-rule="evenodd" clip-rule="evenodd" d="M13.8723 14.4069C13.8723 16.1181 13.9156 17.5452 13.0497 19.0649C12.3509 20.3004 11.2438 21.0602 10.0068 21.0602C8.31832 21.0602 7.33493 19.7753 7.33493 17.8788C7.33493 14.1351 10.6933 13.4556 13.8723 13.4556V14.4069ZM18.3069 25.1127C18.0162 25.3722 17.5956 25.3907 17.2678 25.2178C15.8082 24.0069 15.5484 23.4448 14.7444 22.2896C12.3323 24.7483 10.6253 25.4834 7.49573 25.4834C3.79718 25.4834 0.915039 23.2039 0.915039 18.6386C0.915039 15.0741 2.8509 12.6463 5.60317 11.4602C7.99052 10.41 11.3242 10.2247 13.8723 9.93437V9.36602C13.8723 8.32201 13.9527 7.08649 13.3404 6.18456C12.8023 5.37529 11.7757 5.0417 10.8727 5.0417C9.19658 5.0417 7.69984 5.90039 7.33493 7.67954C7.26071 8.07491 6.97002 8.4641 6.57419 8.48263L2.30663 8.02548C1.94791 7.94518 1.55208 7.65483 1.65104 7.10502C2.63443 1.94055 7.304 0.383789 11.485 0.383789C13.6249 0.383789 16.4205 0.95213 18.109 2.57066C20.2489 4.56603 20.0448 7.22857 20.0448 10.1259V16.9707C20.0448 19.0278 20.8983 19.9297 21.7024 21.0417C21.9869 21.4371 22.0487 21.9127 21.69 22.2093C20.7932 22.9568 19.1975 24.3467 18.3192 25.1251L18.3069 25.1127" fill="#E2E2E2"/>
</g>
<defs>
<clipPath id="clip0_575_989">
<rect width="142.085" height="42.7676" fill="white" transform="translate(0.915039 0.383789)"/>
</clipPath>
</defs>
</svg>
