<svg width="131" height="127" viewBox="0 0 131 127" fill="none" xmlns="http://www.w3.org/2000/svg">
<path d="M40.6669 54.3573C41.0217 52.1912 41.6153 50.0885 42.449 48.049C43.2828 46.0096 44.3362 44.081 45.608 42.2659L45.8796 41.8793L45.724 41.4374C45.3392 40.3452 44.9912 39.2358 44.6883 38.1409C43.6908 34.5382 43.6212 32.764 43.5598 31.1981C43.5038 29.7536 43.4561 28.5057 42.6892 26.3951L42.651 26.2895C42.5787 26.0903 42.4299 25.6867 42.3849 25.4229C43.0399 25.4651 44.1561 25.9597 44.706 26.2025C47.5089 27.4438 49.1532 29.3777 49.8833 30.4198C50.1685 30.8248 50.4264 31.2456 50.6584 31.6809L51.1619 32.6241L52.0693 32.0279C53.0273 31.4 54.6075 30.6388 56.6925 30.5768C56.7826 30.5742 56.8699 30.5728 56.9586 30.5728C59.1802 30.5728 60.8654 31.4131 61.6719 31.9144L62.1113 32.1888L62.5903 31.983C63.742 31.4923 64.8596 30.9383 65.9431 30.3182C67.2435 29.5742 68.1919 28.9226 69.0297 28.3487C70.3056 27.4715 71.2281 26.8383 72.6936 26.3674C73.2176 26.1998 73.7526 26.0719 74.297 25.9835C74.0419 26.6945 73.7498 27.3897 73.4182 28.0691C72.6459 29.6573 71.9854 30.495 71.4041 31.2351C70.7218 32.1004 70.0764 32.9183 69.5879 34.533C69.4514 34.9815 69.3572 35.3891 69.2576 35.8205C69.0625 36.6647 68.8605 37.5367 68.3024 38.8585C68.0554 39.4455 67.9272 39.6724 67.833 39.8373C67.7279 40.022 67.6297 40.1948 67.5082 40.5628C66.9064 42.3912 67.395 43.8449 67.788 45.0137C68.0991 45.9358 68.3434 46.6639 68.1291 47.4726C67.6488 49.2891 64.9565 50.2877 64.8418 50.3299C64.2237 50.5541 63.5932 50.6636 62.9137 50.6636C61.2366 50.6636 59.464 49.9803 57.7487 49.3181C55.2447 48.3511 53.846 47.375 52.7216 46.5914C51.5985 45.8065 50.7061 45.1852 49.4179 45.1852C49.201 45.1865 48.9854 45.2036 48.7711 45.2366C46.4104 45.6007 44.9571 47.7892 42.0615 52.149C41.5798 52.8745 41.1145 53.6106 40.6669 54.3573Z" fill="white"/>
<path d="M51.6314 82.9078C51.0405 78.7867 49.6377 75.2646 47.453 72.4244C46.8431 71.629 46.1799 70.8995 45.5399 70.1924C44.0484 68.5487 42.5064 66.8483 41.352 64.0741C40.8252 62.8038 40.4472 61.4939 40.2194 60.1431C41.9428 57.8477 43.5626 55.5023 45.0391 53.1634C45.3761 52.6305 45.6804 52.1358 45.9615 51.682C47.4858 49.2112 48.1421 48.2047 49.1069 48.0728C49.1669 48.0648 49.2283 48.0596 49.2898 48.0596C49.6855 48.0596 50.0512 48.3063 50.9109 48.9157C51.4335 49.2864 52.0844 49.7468 52.9646 50.281C55.3362 51.7189 59.0029 53.4325 63.0011 53.4325C63.7639 53.4338 64.5212 53.3679 65.2704 53.2346C65.5692 53.1819 65.8667 53.1159 66.1615 53.0394C65.7248 54.1382 65.2049 55.1975 64.6045 56.2212C61.3922 61.6838 56.5507 64.797 53.0546 66.4473L52.3846 66.7639L52.5265 67.471C53.2266 70.9456 53.4326 74.4731 53.1379 77.957C53.0055 79.5334 52.7722 81.0952 52.4378 82.6439L51.6314 82.9078Z" fill="white"/>
<path d="M102.003 97.4423C99.8145 94.4637 97.3569 91.7119 94.6277 89.1844C89.4546 84.3998 83.5923 78.9768 74.9777 78.027C74.0662 77.928 73.1506 77.8792 72.2322 77.8792C68.5628 77.8792 65.3629 78.6298 63.0267 79.1786C60.4504 79.7841 57.9505 80.6086 55.5283 81.652C55.8203 80.54 56.0455 79.4147 56.2011 78.2763C56.6582 74.9243 56.5095 71.5275 55.7603 68.1676C57.889 66.9751 59.8663 65.5834 61.6949 63.9911C63.8441 62.1153 66.52 59.7804 68.1275 55.8889C68.4114 55.2003 68.6502 54.4972 68.8412 53.7795C70.0857 55.0314 71.4571 56.1356 72.9554 57.0933C76.5538 59.386 79.5859 59.9321 82.2605 60.4149C83.3535 60.6115 84.3852 60.7975 85.4141 61.0864C99.0094 64.9132 103.836 84.8365 103.843 89.5828C103.845 92.0035 103.255 94.2051 103.248 94.2276C102.944 95.3383 102.529 96.4108 102.003 97.4423Z" fill="white"/>
<path d="M52.981 101.153C43.0933 101.153 35.4475 98.6084 30.2539 93.589C29.0517 92.4255 27.9955 91.1472 27.0853 89.7582C32.9298 89.5379 38.7184 88.8625 44.451 87.7319C51.7106 86.298 56.4894 84.591 60.3307 83.2191C64.2375 81.8234 67.0594 80.8156 70.6265 80.6995C70.8448 80.6929 71.0672 80.689 71.2924 80.689C79.9616 80.689 89.1575 86.3534 98.6564 97.5359C94.2024 96.3276 89.6856 95.6983 85.1893 95.6654L84.8072 95.664C78.2586 95.664 74.4514 96.9318 70.4218 98.2733C66.7456 99.4975 62.9439 100.764 56.6695 101.051C55.7457 101.095 54.4807 101.153 52.981 101.153Z" fill="white"/>
</svg>
