<svg width="159" height="44" viewBox="0 0 159 44" fill="none" xmlns="http://www.w3.org/2000/svg">
<g clip-path="url(#clip0_575_987)">
<path d="M22.296 40.3947C19.9177 40.8127 17.4975 40.938 14.994 41.2718L7.35792 18.8859V42.2326C4.97961 42.4831 2.80989 42.8172 0.556641 43.1514V0.383789H6.89921L15.5781 24.6497V0.383789H22.296V40.3947ZM35.4398 16.0457C38.0271 16.0457 41.991 15.9204 44.3693 15.9204V22.6027C41.4066 22.6027 37.9435 22.6027 35.4398 22.728V32.6683C39.3623 32.4178 43.2845 32.0834 47.2483 31.9581V38.3895L28.7635 39.8516V0.383789H47.2483V7.06623H35.4398V16.0457ZM72.0754 7.06639H65.1489V37.8055C62.8957 37.8055 60.6424 37.8055 58.473 37.8888V7.06639H51.5465V0.383789H72.0757L72.0754 7.06639ZM82.9242 15.5865H92.0624V22.2687H82.9242V37.4297H76.3727V0.383789H95.0249V7.06623H82.9242V15.5865ZM105.874 31.5824C109.671 31.6657 113.509 31.9585 117.223 32.167V38.766C111.257 38.3898 105.29 38.0145 99.1976 37.8888V0.383789H105.874V31.5824ZM122.856 39.2254C124.984 39.3509 127.238 39.4762 129.407 39.7265V0.383789H122.856V39.2254ZM158.658 0.383789L150.187 20.7235L158.658 43.1514C156.154 42.8172 153.65 42.3578 151.147 41.9401L146.348 29.5778L141.467 40.938C139.046 40.52 136.71 40.3947 134.29 40.0606L142.885 20.4727L135.124 0.383789H142.301L146.682 11.6187L151.356 0.383789H158.658V0.383789Z" fill="#E2E2E2"/>
</g>
<defs>
<clipPath id="clip0_575_987">
<rect width="158.101" height="42.7676" fill="white" transform="translate(0.556641 0.383789)"/>
</clipPath>
</defs>
</svg>
