<svg width="128" height="24" viewBox="0 0 128 24" fill="none" xmlns="http://www.w3.org/2000/svg">
<path d="M21.947 9.17901C21.8842 8.99388 21.7685 8.83121 21.6142 8.71107C21.46 8.59094 21.2739 8.51861 21.079 8.50301L15.378 8.05001L12.911 2.58901C12.8325 2.41313 12.7047 2.26374 12.5431 2.15887C12.3815 2.05401 12.193 1.99815 12.0004 1.99805C11.8077 1.99794 11.6192 2.05359 11.4575 2.15828C11.2957 2.26296 11.1678 2.41221 11.089 2.58801L8.62203 8.05001L2.92103 8.50301C2.72948 8.51819 2.54636 8.58822 2.39358 8.70475C2.2408 8.82127 2.12482 8.97934 2.05952 9.16004C1.99422 9.34075 1.98236 9.53645 2.02537 9.72372C2.06838 9.91099 2.16443 10.0819 2.30203 10.216L6.51503 14.323L5.02503 20.775C4.97978 20.9703 4.99428 21.1747 5.06665 21.3617C5.13901 21.5486 5.26589 21.7095 5.43083 21.8235C5.59577 21.9374 5.79115 21.9991 5.99161 22.0007C6.19208 22.0022 6.38837 21.9434 6.55503 21.832L12 18.202L17.445 21.832C17.6154 21.9451 17.8162 22.0033 18.0207 21.9988C18.2251 21.9944 18.4232 21.9274 18.5884 21.8069C18.7536 21.6865 18.878 21.5183 18.9448 21.3251C19.0116 21.1318 19.0176 20.9228 18.962 20.726L17.133 14.326L21.669 10.244C21.966 9.97601 22.075 9.55801 21.947 9.17901Z" fill="#E1FF27"/>
<path d="M99.947 9.17901C99.8842 8.99388 99.7685 8.83121 99.6142 8.71107C99.46 8.59094 99.2739 8.51861 99.079 8.50301L93.378 8.05001L90.911 2.58901C90.8325 2.41313 90.7047 2.26374 90.5431 2.15887C90.3815 2.05401 90.193 1.99815 90.0004 1.99805C89.8077 1.99794 89.6192 2.05359 89.4575 2.15828C89.2957 2.26296 89.1678 2.41221 89.089 2.58801L86.622 8.05001L80.921 8.50301C80.7295 8.51819 80.5464 8.58822 80.3936 8.70475C80.2408 8.82127 80.1248 8.97934 80.0595 9.16004C79.9942 9.34075 79.9824 9.53645 80.0254 9.72372C80.0684 9.91099 80.1644 10.0819 80.302 10.216L84.515 14.323L83.025 20.775C82.9798 20.9703 82.9943 21.1747 83.0666 21.3617C83.139 21.5486 83.2659 21.7095 83.4308 21.8235C83.5958 21.9374 83.7911 21.9991 83.9916 22.0007C84.1921 22.0022 84.3884 21.9434 84.555 21.832L90 18.202L95.445 21.832C95.6154 21.9451 95.8162 22.0033 96.0207 21.9988C96.2251 21.9944 96.4232 21.9274 96.5884 21.8069C96.7536 21.6865 96.878 21.5183 96.9448 21.3251C97.0116 21.1318 97.0176 20.9228 96.962 20.726L95.133 14.326L99.669 10.244C99.966 9.97601 100.075 9.55801 99.947 9.17901Z" fill="#E1FF27"/>
<path d="M47.947 9.17901C47.8842 8.99388 47.7685 8.83121 47.6142 8.71107C47.46 8.59094 47.2739 8.51861 47.079 8.50301L41.378 8.05001L38.911 2.58901C38.8325 2.41313 38.7047 2.26374 38.5431 2.15887C38.3815 2.05401 38.193 1.99815 38.0004 1.99805C37.8077 1.99794 37.6192 2.05359 37.4575 2.15828C37.2957 2.26296 37.1678 2.41221 37.089 2.58801L34.622 8.05001L28.921 8.50301C28.7295 8.51819 28.5464 8.58822 28.3936 8.70475C28.2408 8.82127 28.1248 8.97934 28.0595 9.16004C27.9942 9.34075 27.9824 9.53645 28.0254 9.72372C28.0684 9.91099 28.1644 10.0819 28.302 10.216L32.515 14.323L31.025 20.775C30.9798 20.9703 30.9943 21.1747 31.0666 21.3617C31.139 21.5486 31.2659 21.7095 31.4308 21.8235C31.5958 21.9374 31.7911 21.9991 31.9916 22.0007C32.1921 22.0022 32.3884 21.9434 32.555 21.832L38 18.202L43.445 21.832C43.6154 21.9451 43.8162 22.0033 44.0207 21.9988C44.2251 21.9944 44.4232 21.9274 44.5884 21.8069C44.7536 21.6865 44.878 21.5183 44.9448 21.3251C45.0116 21.1318 45.0176 20.9228 44.962 20.726L43.133 14.326L47.669 10.244C47.966 9.97601 48.075 9.55801 47.947 9.17901Z" fill="#E1FF27"/>
<path d="M125.947 9.17901C125.884 8.99388 125.768 8.83121 125.614 8.71107C125.46 8.59094 125.274 8.51861 125.079 8.50301L119.378 8.05001L116.911 2.58901C116.832 2.41313 116.705 2.26374 116.543 2.15887C116.381 2.05401 116.193 1.99815 116 1.99805C115.808 1.99794 115.619 2.05359 115.457 2.15828C115.296 2.26296 115.168 2.41221 115.089 2.58801L112.622 8.05001L106.921 8.50301C106.729 8.51819 106.546 8.58822 106.394 8.70475C106.241 8.82127 106.125 8.97934 106.06 9.16004C105.994 9.34075 105.982 9.53645 106.025 9.72372C106.068 9.91099 106.164 10.0819 106.302 10.216L110.515 14.323L109.025 20.775C108.98 20.9703 108.994 21.1747 109.067 21.3617C109.139 21.5486 109.266 21.7095 109.431 21.8235C109.596 21.9374 109.791 21.9991 109.992 22.0007C110.192 22.0022 110.388 21.9434 110.555 21.832L116 18.202L121.445 21.832C121.615 21.9451 121.816 22.0033 122.021 21.9988C122.225 21.9944 122.423 21.9274 122.588 21.8069C122.754 21.6865 122.878 21.5183 122.945 21.3251C123.012 21.1318 123.018 20.9228 122.962 20.726L121.133 14.326L125.669 10.244C125.966 9.97601 126.075 9.55801 125.947 9.17901Z" fill="#E1FF27"/>
<path d="M73.947 9.17901C73.8842 8.99388 73.7685 8.83121 73.6142 8.71107C73.46 8.59094 73.2739 8.51861 73.079 8.50301L67.378 8.05001L64.911 2.58901C64.8325 2.41313 64.7047 2.26374 64.5431 2.15887C64.3815 2.05401 64.193 1.99815 64.0004 1.99805C63.8077 1.99794 63.6192 2.05359 63.4575 2.15828C63.2957 2.26296 63.1678 2.41221 63.089 2.58801L60.622 8.05001L54.921 8.50301C54.7295 8.51819 54.5464 8.58822 54.3936 8.70475C54.2408 8.82127 54.1248 8.97934 54.0595 9.16004C53.9942 9.34075 53.9824 9.53645 54.0254 9.72372C54.0684 9.91099 54.1644 10.0819 54.302 10.216L58.515 14.323L57.025 20.775C56.9798 20.9703 56.9943 21.1747 57.0666 21.3617C57.139 21.5486 57.2659 21.7095 57.4308 21.8235C57.5958 21.9374 57.7911 21.9991 57.9916 22.0007C58.1921 22.0022 58.3884 21.9434 58.555 21.832L64 18.202L69.445 21.832C69.6154 21.9451 69.8162 22.0033 70.0207 21.9988C70.2251 21.9944 70.4232 21.9274 70.5884 21.8069C70.7536 21.6865 70.878 21.5183 70.9448 21.3251C71.0116 21.1318 71.0176 20.9228 70.962 20.726L69.133 14.326L73.669 10.244C73.966 9.97601 74.075 9.55801 73.947 9.17901Z" fill="#E1FF27"/>
</svg>
