<svg width="169" height="44" viewBox="0 0 169 44" fill="none" xmlns="http://www.w3.org/2000/svg">
<g clip-path="url(#clip0_575_980)">
<path d="M54.3082 33.8906L56.3961 29.0413C58.6523 30.7251 61.6494 31.6007 64.6129 31.6007C66.8017 31.6007 68.1824 30.7588 68.1824 29.4791C68.1488 25.9095 55.0828 28.7046 54.9817 19.747C54.9481 15.2008 58.9891 11.6986 64.7139 11.6986C68.1151 11.6986 71.5163 12.5405 73.9409 14.46L71.9877 19.4102C69.7652 17.9959 67.0038 16.9856 64.3771 16.9856C62.5923 16.9856 61.4137 17.8275 61.4137 18.9051C61.4474 22.4073 74.6144 20.4878 74.7491 29.0413C74.7491 33.6885 70.8091 36.955 65.1517 36.955C61.0096 36.955 57.2043 35.9784 54.3082 33.8906ZM134.422 27.2902C133.378 29.1087 131.425 30.3547 129.168 30.3547C125.834 30.3547 123.14 27.6607 123.14 24.3268C123.14 20.993 125.834 18.2989 129.168 18.2989C131.425 18.2989 133.378 19.5449 134.422 21.3634L140.18 18.1642C138.025 14.3253 133.883 11.6986 129.168 11.6986C122.198 11.6986 116.54 17.356 116.54 24.3268C116.54 31.2976 122.198 36.955 129.168 36.955C133.917 36.955 138.025 34.362 140.18 30.4894L134.422 27.2902ZM77.6452 1.22559H84.8517V36.4836H77.6452V1.22559ZM143.009 1.22559V36.4836H150.215V25.9095L158.769 36.4836H167.996L157.119 23.9227L167.188 12.2037H158.365L150.215 21.9359V1.22559H143.009ZM106.269 27.3576C105.225 29.075 103.07 30.3547 100.645 30.3547C97.3115 30.3547 94.6175 27.6607 94.6175 24.3268C94.6175 20.993 97.3115 18.2989 100.645 18.2989C103.07 18.2989 105.225 19.6459 106.269 21.3971V27.3576ZM106.269 12.2037V15.0661C105.091 13.0793 102.161 11.6986 99.0963 11.6986C92.7654 11.6986 87.7814 17.2887 87.7814 24.2931C87.7814 31.2976 92.7654 36.955 99.0963 36.955C102.161 36.955 105.091 35.5743 106.269 33.5875V36.4499H113.476V12.2037H106.269Z" fill="#E2E2E2"/>
<path d="M9.75599 27.3238C9.75599 29.7821 7.76915 31.7689 5.31086 31.7689C2.85256 31.7689 0.865723 29.7821 0.865723 27.3238C0.865723 24.8655 2.85256 22.8787 5.31086 22.8787H9.75599V27.3238ZM11.9786 27.3238C11.9786 24.8655 13.9654 22.8787 16.4237 22.8787C18.882 22.8787 20.8688 24.8655 20.8688 27.3238V38.4366C20.8688 40.8949 18.882 42.8818 16.4237 42.8818C13.9654 42.8818 11.9786 40.8949 11.9786 38.4366V27.3238Z" fill="#E2E2E2"/>
<path d="M16.4237 9.47596C13.9654 9.47596 11.9785 7.48912 11.9785 5.03083C11.9785 2.57253 13.9654 0.585693 16.4237 0.585693C18.882 0.585693 20.8688 2.57253 20.8688 5.03083V9.47596H16.4237ZM16.4237 11.7322C18.882 11.7322 20.8688 13.719 20.8688 16.1773C20.8688 18.6356 18.882 20.6225 16.4237 20.6225H5.27716C2.81887 20.6225 0.832031 18.6356 0.832031 16.1773C0.832031 13.719 2.81887 11.7322 5.27716 11.7322H16.4237Z" fill="#E2E2E2"/>
<path d="M34.238 16.1773C34.238 13.719 36.2248 11.7322 38.6831 11.7322C41.1414 11.7322 43.1282 13.719 43.1282 16.1773C43.1282 18.6356 41.1414 20.6225 38.6831 20.6225H34.238V16.1773ZM32.0154 16.1773C32.0154 18.6356 30.0285 20.6225 27.5703 20.6225C25.112 20.6225 23.1251 18.6356 23.1251 16.1773V5.03083C23.1251 2.57253 25.112 0.585693 27.5703 0.585693C30.0285 0.585693 32.0154 2.57253 32.0154 5.03083V16.1773Z" fill="#E2E2E2"/>
<path d="M27.5703 33.9915C30.0285 33.9915 32.0154 35.9783 32.0154 38.4366C32.0154 40.8949 30.0285 42.8818 27.5703 42.8818C25.112 42.8818 23.1251 40.8949 23.1251 38.4366V33.9915H27.5703ZM27.5703 31.7689C25.112 31.7689 23.1251 29.7821 23.1251 27.3238C23.1251 24.8655 25.112 22.8787 27.5703 22.8787H38.7168C41.1751 22.8787 43.1619 24.8655 43.1619 27.3238C43.1619 29.7821 41.1751 31.7689 38.7168 31.7689H27.5703Z" fill="#E2E2E2"/>
</g>
<defs>
<clipPath id="clip0_575_980">
<rect width="167.703" height="42.7676" fill="white" transform="translate(0.596558 0.383789)"/>
</clipPath>
</defs>
</svg>
