<svg width="254" height="50" viewBox="0 0 254 50" fill="none" xmlns="http://www.w3.org/2000/svg">
<path d="M18.9814 39H11.5955V9.37866H0.464851V1.96687H30.0862V9.37866H18.9814V39ZM37.8854 39H30.8351V11.3414H32.5396L34.8638 14.6211C36.0001 13.5881 37.2914 12.7962 38.7376 12.2452C40.1838 11.6771 41.6816 11.393 43.2311 11.393H49.455V18.4174H43.2311C42.4908 18.4174 41.7936 18.5552 41.1393 18.8306C40.4851 19.1061 39.9169 19.4849 39.4349 19.9669C38.9528 20.449 38.574 21.0172 38.2986 21.6714C38.0231 22.3256 37.8854 23.0229 37.8854 23.7632V39ZM63.2197 32.2338C63.4952 32.3199 63.7707 32.3802 64.0461 32.4146C64.3216 32.4318 64.5971 32.4404 64.8725 32.4404C65.5612 32.4404 66.2241 32.3457 66.8611 32.1564C67.4981 31.967 68.0921 31.7001 68.643 31.3558C69.2112 30.9942 69.7104 30.5638 70.1409 30.0645C70.5885 29.548 70.95 28.9799 71.2255 28.3601L76.3905 33.5509C75.7363 34.4806 74.9787 35.3156 74.1179 36.0559C73.2743 36.7963 72.3532 37.4247 71.3546 37.9412C70.3733 38.4577 69.3317 38.845 68.2298 39.1033C67.1451 39.3788 66.0261 39.5165 64.8725 39.5165C62.9271 39.5165 61.0935 39.155 59.3718 38.4318C57.6674 37.7087 56.1695 36.7016 54.8782 35.4103C53.6042 34.1191 52.597 32.5868 51.8567 30.8135C51.1164 29.0229 50.7462 27.0602 50.7462 24.9253C50.7462 22.7388 51.1164 20.7417 51.8567 18.9339C52.597 17.1262 53.6042 15.5853 54.8782 14.3112C56.1695 13.0372 57.6674 12.0472 59.3718 11.3414C61.0935 10.6355 62.9271 10.2825 64.8725 10.2825C66.0261 10.2825 67.1538 10.4203 68.2556 10.6957C69.3575 10.9712 70.3991 11.3672 71.3805 11.8837C72.379 12.4002 73.3087 13.0372 74.1696 13.7947C75.0304 14.5351 75.7879 15.3701 76.4422 16.2998L63.2197 32.2338ZM66.8352 17.6943C66.5081 17.5738 66.181 17.4963 65.8539 17.4619C65.544 17.4275 65.2169 17.4103 64.8725 17.4103C63.9084 17.4103 62.9959 17.591 62.1351 17.9526C61.2915 18.2969 60.5512 18.7962 59.9141 19.4504C59.2943 20.1047 58.8037 20.8966 58.4421 21.8263C58.0806 22.7388 57.8998 23.7718 57.8998 24.9253C57.8998 25.1836 57.9084 25.4763 57.9256 25.8034C57.96 26.1305 58.0031 26.4662 58.0547 26.8106C58.1236 27.1377 58.2011 27.4562 58.2872 27.7661C58.3732 28.076 58.4851 28.3515 58.6229 28.5925L66.8352 17.6943ZM87.0563 39H80.006V11.3414H81.7105L84.0347 14.0272C85.171 12.9942 86.4537 12.2022 87.8827 11.6513C89.3289 11.0831 90.8353 10.799 92.4021 10.799C94.0893 10.799 95.6818 11.1262 97.1797 11.7804C98.6775 12.4174 99.986 13.3041 101.105 14.4404C102.224 15.5595 103.102 16.8765 103.739 18.3916C104.393 19.8895 104.721 21.4906 104.721 23.1951V39H97.6704V23.1951C97.6704 22.472 97.5326 21.7919 97.2572 21.1549C96.9817 20.5007 96.6029 19.9325 96.1209 19.4504C95.6388 18.9684 95.0793 18.5896 94.4422 18.3141C93.8052 18.0387 93.1252 17.9009 92.4021 17.9009C91.6617 17.9009 90.9645 18.0387 90.3102 18.3141C89.656 18.5896 89.0878 18.9684 88.6058 19.4504C88.1237 19.9325 87.7449 20.5007 87.4695 21.1549C87.194 21.7919 87.0563 22.472 87.0563 23.1951V39ZM136.485 39H134.781L132.044 35.2037C131.372 35.8063 130.658 36.3745 129.9 36.9082C129.16 37.4247 128.376 37.8809 127.55 38.2769C126.724 38.6557 125.871 38.957 124.993 39.1808C124.132 39.4046 123.254 39.5165 122.359 39.5165C120.414 39.5165 118.58 39.155 116.858 38.4318C115.154 37.6915 113.656 36.6757 112.365 35.3845C111.091 34.076 110.084 32.5351 109.343 30.7618C108.603 28.9713 108.233 27.0258 108.233 24.9253C108.233 22.8421 108.603 20.9052 109.343 19.1147C110.084 17.3242 111.091 15.7747 112.365 14.4662C113.656 13.1577 115.154 12.1333 116.858 11.393C118.58 10.6527 120.414 10.2825 122.359 10.2825C122.979 10.2825 123.616 10.3342 124.27 10.4375C124.942 10.5408 125.587 10.713 126.207 10.954C126.844 11.1778 127.438 11.4791 127.989 11.8579C128.54 12.2366 129.005 12.7015 129.384 13.2524V0.339889H136.485V39ZM129.384 24.9253C129.384 23.9612 129.194 23.0315 128.815 22.1362C128.454 21.2238 127.955 20.4232 127.318 19.7345C126.681 19.0286 125.932 18.4691 125.071 18.0559C124.227 17.6255 123.323 17.4103 122.359 17.4103C121.395 17.4103 120.482 17.5824 119.622 17.9268C118.778 18.2711 118.038 18.7704 117.401 19.4246C116.781 20.0616 116.29 20.845 115.929 21.7747C115.567 22.7044 115.386 23.7546 115.386 24.9253C115.386 25.9411 115.567 26.9053 115.929 27.8178C116.29 28.7302 116.781 29.5308 117.401 30.2195C118.038 30.9081 118.778 31.4505 119.622 31.8465C120.482 32.2424 121.395 32.4404 122.359 32.4404C123.323 32.4404 124.227 32.2338 125.071 31.8206C125.932 31.3902 126.681 30.8307 127.318 30.142C127.955 29.4361 128.454 28.6355 128.815 27.7403C129.194 26.8278 129.384 25.8895 129.384 24.9253ZM148.546 49.5366V42.4347L152.471 42.4864C153.16 42.4864 153.823 42.3745 154.46 42.1507C155.097 41.9268 155.682 41.6169 156.216 41.221C156.767 40.825 157.249 40.3515 157.662 39.8006C158.075 39.2669 158.411 38.6815 158.669 38.0445C157.894 38.3716 157.102 38.6987 156.293 39.0258C155.501 39.3529 154.701 39.5165 153.892 39.5165C152.187 39.5165 150.586 39.2152 149.088 38.6126C147.59 38.01 146.273 37.1578 145.137 36.0559C144.018 34.9369 143.131 33.5853 142.477 32.0014C141.84 30.4003 141.521 28.6097 141.521 26.6298V11.3414H148.546V26.6298C148.546 27.6111 148.683 28.472 148.959 29.2123C149.252 29.9354 149.639 30.5466 150.121 31.0459C150.603 31.528 151.163 31.8895 151.8 32.1305C152.454 32.3716 153.151 32.4921 153.892 32.4921C154.615 32.4921 155.295 32.3285 155.932 32.0014C156.586 31.6571 157.154 31.2094 157.636 30.6585C158.118 30.1076 158.497 29.4878 158.772 28.7991C159.048 28.0932 159.186 27.3701 159.186 26.6298V11.3414H166.288V35.5136C166.27 37.4591 165.892 39.2841 165.151 40.9885C164.411 42.693 163.395 44.1822 162.104 45.4563C160.83 46.7303 159.341 47.7375 157.636 48.4778C155.932 49.2181 154.107 49.5883 152.161 49.5883L148.546 49.5366ZM179.846 9.37866V24.2022H187.257C188.273 24.2022 189.229 24.0129 190.124 23.6341C191.019 23.2381 191.803 22.7044 192.474 22.0329C193.146 21.3615 193.671 20.5781 194.049 19.6829C194.445 18.7704 194.643 17.8062 194.643 16.7905C194.643 15.7747 194.445 14.8191 194.049 13.9239C193.671 13.0114 193.146 12.2194 192.474 11.548C191.803 10.8765 191.019 10.3514 190.124 9.97264C189.229 9.57665 188.273 9.37866 187.257 9.37866H179.846ZM179.846 39H172.434V1.96687H187.257C188.618 1.96687 189.926 2.14764 191.183 2.50919C192.44 2.85353 193.61 3.35281 194.695 4.00705C195.797 4.64407 196.796 5.41882 197.691 6.3313C198.603 7.22657 199.378 8.22514 200.015 9.32701C200.669 10.4289 201.169 11.6082 201.513 12.865C201.874 14.1219 202.055 15.4303 202.055 16.7905C202.055 18.822 201.668 20.7417 200.893 22.5494C200.118 24.34 199.06 25.9067 197.717 27.2496C196.374 28.5925 194.798 29.6513 192.991 30.4261C191.2 31.2008 189.289 31.5882 187.257 31.5882H179.846V39ZM212.721 39H205.671V11.3414H207.375L209.699 14.6211C210.836 13.5881 212.127 12.7962 213.573 12.2452C215.019 11.6771 216.517 11.393 218.067 11.393H224.291V18.4174H218.067C217.326 18.4174 216.629 18.5552 215.975 18.8306C215.321 19.1061 214.753 19.4849 214.271 19.9669C213.788 20.449 213.41 21.0172 213.134 21.6714C212.859 22.3256 212.721 23.0229 212.721 23.7632V39ZM253.783 24.9253C253.783 26.9913 253.413 28.9196 252.672 30.7102C251.932 32.4835 250.925 34.0244 249.651 35.3328C248.377 36.6241 246.879 37.6485 245.157 38.406C243.453 39.1463 241.619 39.5165 239.657 39.5165C237.711 39.5165 235.877 39.1463 234.156 38.406C232.451 37.6485 230.953 36.6241 229.662 35.3328C228.388 34.0244 227.381 32.4835 226.641 30.7102C225.9 28.9196 225.53 26.9913 225.53 24.9253C225.53 22.8249 225.9 20.8794 226.641 19.0889C227.381 17.2983 228.388 15.7574 229.662 14.4662C230.953 13.1577 232.451 12.1333 234.156 11.393C235.877 10.6527 237.711 10.2825 239.657 10.2825C241.619 10.2825 243.453 10.6355 245.157 11.3414C246.879 12.03 248.377 13.02 249.651 14.3112C250.925 15.5853 251.932 17.1262 252.672 18.9339C253.413 20.7245 253.783 22.7216 253.783 24.9253ZM246.681 24.9253C246.681 23.789 246.492 22.7646 246.113 21.8522C245.751 20.9225 245.252 20.1305 244.615 19.4763C243.978 18.8048 243.229 18.2969 242.368 17.9526C241.525 17.591 240.621 17.4103 239.657 17.4103C238.692 17.4103 237.78 17.591 236.919 17.9526C236.075 18.2969 235.335 18.8048 234.698 19.4763C234.078 20.1305 233.588 20.9225 233.226 21.8522C232.865 22.7646 232.684 23.789 232.684 24.9253C232.684 25.9928 232.865 26.9827 233.226 27.8952C233.588 28.8077 234.078 29.5997 234.698 30.2711C235.335 30.9426 236.075 31.4763 236.919 31.8723C237.78 32.2511 238.692 32.4404 239.657 32.4404C240.621 32.4404 241.525 32.2597 242.368 31.8981C243.229 31.5366 243.978 31.0287 244.615 30.3744C245.252 29.7202 245.751 28.9282 246.113 27.9985C246.492 27.0688 246.681 26.0444 246.681 24.9253Z" fill="white"/>
</svg>
