<svg width="49" height="49" viewBox="0 0 49 49" fill="none" xmlns="http://www.w3.org/2000/svg">
<path d="M19.0798 42.7335H4.69956C3.74609 42.7335 2.83167 42.3678 2.15746 41.7168C1.48326 41.0658 1.10449 40.1828 1.10449 39.2622V4.54896C1.10449 3.62831 1.48326 2.74536 2.15746 2.09436C2.83167 1.44336 3.74609 1.07764 4.69956 1.07764H44.2453C45.1988 1.07764 46.1132 1.44336 46.7874 2.09436C47.4616 2.74536 47.8404 3.62831 47.8404 4.54896V21.9056" stroke="#A3A3A3" stroke-width="1.37075" stroke-linecap="round" stroke-linejoin="round"/>
<path d="M1.10449 11.2375H47.8404" stroke="#A3A3A3" stroke-width="1.37075" stroke-linecap="round" stroke-linejoin="round"/>
<path d="M33.1086 41.7175C37.8781 41.7175 41.7446 37.6236 41.7446 32.5735C41.7446 27.5235 37.8781 23.4296 33.1086 23.4296C28.3391 23.4296 24.4727 27.5235 24.4727 32.5735C24.4727 37.6236 28.3391 41.7175 33.1086 41.7175Z" stroke="#A3A3A3" stroke-width="1.37075" stroke-linecap="round" stroke-linejoin="round"/>
<path d="M39.5879 39.8705L47.6485 47.3612" stroke="#A3A3A3" stroke-width="1.37075" stroke-linecap="round" stroke-linejoin="round"/>
</svg>
