<svg width="375" height="692" viewBox="0 0 375 692" fill="none" xmlns="http://www.w3.org/2000/svg">
<rect width="375" height="692" rx="12" fill="#00ACED"/>
<path d="M160.714 258.929C154.338 263.936 147.021 267.61 139.196 269.732C138.334 270.045 137.59 270.616 137.064 271.366C136.537 272.117 136.255 273.012 136.255 273.929C136.255 274.845 136.537 275.74 137.064 276.491C137.59 277.242 138.334 277.812 139.196 278.125C200.982 303.482 240.268 264.286 234.285 220.804L244.285 200.089H232.678C218.214 182.321 179.821 183.214 186.16 221.071C186.16 221.071 165.625 224.732 139.375 198.929C138.768 198.329 138.001 197.916 137.167 197.739C136.332 197.561 135.464 197.627 134.665 197.927C133.867 198.228 133.171 198.751 132.661 199.435C132.15 200.119 131.847 200.935 131.785 201.786C129.01 213.195 130.399 225.221 135.702 235.697C141.006 246.173 149.876 254.411 160.714 258.929V258.929Z" stroke="white" stroke-width="4" stroke-linecap="round" stroke-linejoin="round"/>
<path d="M146.292 478.908V481.572H139.452V504H136.176V481.572H129.3V478.908H146.292ZM176.605 484.272L170.449 504H167.065L162.313 488.34L157.561 504H154.177L147.985 484.272H151.333L155.869 500.832L160.765 484.272H164.113L168.901 500.868L173.365 484.272H176.605ZM181.548 481.068C180.924 481.068 180.396 480.852 179.964 480.42C179.532 479.988 179.316 479.46 179.316 478.836C179.316 478.212 179.532 477.684 179.964 477.252C180.396 476.82 180.924 476.604 181.548 476.604C182.148 476.604 182.652 476.82 183.06 477.252C183.492 477.684 183.708 478.212 183.708 478.836C183.708 479.46 183.492 479.988 183.06 480.42C182.652 480.852 182.148 481.068 181.548 481.068ZM183.132 484.272V504H179.856V484.272H183.132ZM192.711 486.972V498.6C192.711 499.56 192.915 500.244 193.323 500.652C193.731 501.036 194.439 501.228 195.447 501.228H197.859V504H194.907C193.083 504 191.715 503.58 190.803 502.74C189.891 501.9 189.435 500.52 189.435 498.6V486.972H186.879V484.272H189.435V479.304H192.711V484.272H197.859V486.972H192.711ZM205.825 486.972V498.6C205.825 499.56 206.029 500.244 206.437 500.652C206.845 501.036 207.553 501.228 208.561 501.228H210.973V504H208.021C206.197 504 204.829 503.58 203.917 502.74C203.005 501.9 202.549 500.52 202.549 498.6V486.972H199.993V484.272H202.549V479.304H205.825V484.272H210.973V486.972H205.825ZM232.942 493.38C232.942 494.004 232.906 494.664 232.834 495.36H217.066C217.186 497.304 217.846 498.828 219.046 499.932C220.27 501.012 221.746 501.552 223.474 501.552C224.89 501.552 226.066 501.228 227.002 500.58C227.962 499.908 228.634 499.02 229.018 497.916H232.546C232.018 499.812 230.962 501.36 229.378 502.56C227.794 503.736 225.826 504.324 223.474 504.324C221.602 504.324 219.922 503.904 218.434 503.064C216.97 502.224 215.818 501.036 214.978 499.5C214.138 497.94 213.718 496.14 213.718 494.1C213.718 492.06 214.126 490.272 214.942 488.736C215.758 487.2 216.898 486.024 218.362 485.208C219.85 484.368 221.554 483.948 223.474 483.948C225.346 483.948 227.002 484.356 228.442 485.172C229.882 485.988 230.986 487.116 231.754 488.556C232.546 489.972 232.942 491.58 232.942 493.38ZM229.558 492.696C229.558 491.448 229.282 490.38 228.73 489.492C228.178 488.58 227.422 487.896 226.462 487.44C225.526 486.96 224.482 486.72 223.33 486.72C221.674 486.72 220.258 487.248 219.082 488.304C217.93 489.36 217.27 490.824 217.102 492.696H229.558ZM240.542 487.476C241.118 486.348 241.934 485.472 242.99 484.848C244.07 484.224 245.378 483.912 246.914 483.912V487.296H246.05C242.378 487.296 240.542 489.288 240.542 493.272V504H237.266V484.272H240.542V487.476Z" fill="white"/>
</svg>
