<svg width="139" height="52" viewBox="0 0 139 52" fill="none" xmlns="http://www.w3.org/2000/svg">
<g clip-path="url(#clip0_575_972)" filter="url(#filter0_d_575_972)">
<path d="M130.279 26.521L133.895 28.9314C132.722 30.66 129.915 33.6255 125.062 33.6255C119.036 33.6255 114.548 28.9632 114.548 23.0321C114.548 16.7205 119.083 12.4387 124.555 12.4387C130.057 12.4387 132.753 16.8156 133.626 19.1785L134.101 20.3838L119.924 26.2514C121.002 28.3764 122.683 29.4548 125.062 29.4548C127.441 29.4548 129.09 28.2813 130.279 26.521ZM119.163 22.6991L128.63 18.7662C128.107 17.45 126.553 16.5143 124.697 16.5143C122.334 16.5143 119.052 18.6076 119.163 22.6991Z" fill="#E2E2E2"/>
<path d="M107.713 1.63916H112.28V32.6582H107.713V1.63916Z" fill="#E2E2E2"/>
<path d="M100.513 13.2633H104.922V32.1031C104.922 39.9213 100.307 43.1406 94.8518 43.1406C89.7137 43.1406 86.6213 39.6834 85.4637 36.8765L89.5076 35.1955C90.237 36.9241 91.9973 38.9698 94.8518 38.9698C98.3565 38.9698 100.513 36.7972 100.513 32.7375V31.215H100.355C99.3081 32.4837 97.3099 33.6255 94.7725 33.6255C89.4758 33.6255 84.6232 29.0107 84.6232 23.0638C84.6232 17.0852 89.4758 12.4229 94.7725 12.4229C97.294 12.4229 99.3081 13.5488 100.355 14.7858H100.513V13.2633ZM100.83 23.0638C100.83 19.3213 98.3407 16.5936 95.169 16.5936C91.9656 16.5936 89.2697 19.3213 89.2697 23.0638C89.2697 26.7588 91.9656 29.4389 95.169 29.4389C98.3407 29.4548 100.83 26.7588 100.83 23.0638Z" fill="#E2E2E2"/>
<path d="M59.5511 22.9845C59.5511 29.09 54.7936 33.5779 48.9577 33.5779C43.1218 33.5779 38.3643 29.0741 38.3643 22.9845C38.3643 16.8473 43.1218 12.3752 48.9577 12.3752C54.7936 12.3752 59.5511 16.8473 59.5511 22.9845ZM54.9204 22.9845C54.9204 19.1785 52.1611 16.5619 48.9577 16.5619C45.7543 16.5619 42.9949 19.1785 42.9949 22.9845C42.9949 26.7588 45.7543 29.4072 48.9577 29.4072C52.1611 29.4072 54.9204 26.7588 54.9204 22.9845Z" fill="#E2E2E2"/>
<path d="M82.6885 23.0321C82.6885 29.1376 77.931 33.6255 72.0951 33.6255C66.2592 33.6255 61.5017 29.1376 61.5017 23.0321C61.5017 16.8949 66.2592 12.4387 72.0951 12.4387C77.931 12.4387 82.6885 16.8791 82.6885 23.0321ZM78.042 23.0321C78.042 19.2261 75.2827 16.6095 72.0793 16.6095C68.8759 16.6095 66.1165 19.2261 66.1165 23.0321C66.1165 26.8064 68.8759 29.4548 72.0793 29.4548C75.2985 29.4548 78.042 26.7906 78.042 23.0321Z" fill="#E2E2E2"/>
<path d="M20.9518 28.979C14.3071 28.979 9.10555 23.6188 9.10555 16.9742C9.10555 10.3295 14.3071 4.96935 20.9518 4.96935C24.5358 4.96935 27.1524 6.38075 29.0871 8.1886L32.2747 5.00107C29.5787 2.41615 25.9789 0.449707 20.9518 0.449707C11.8491 0.449707 4.18945 7.87144 4.18945 16.9742C4.18945 26.0769 11.8491 33.4986 20.9518 33.4986C25.8679 33.4986 29.5787 31.881 32.4808 28.868C35.4622 25.8866 36.382 21.7 36.382 18.3063C36.382 17.2437 36.2551 16.1495 36.1124 15.3407H20.9518V19.7494H31.7513C31.4342 22.5087 30.562 24.3959 29.2774 25.6804C27.7233 27.2504 25.2653 28.979 20.9518 28.979Z" fill="#E2E2E2"/>
</g>
<defs>
<filter id="filter0_d_575_972" x="0" y="0.383789" width="138.339" height="50.7676" filterUnits="userSpaceOnUse" color-interpolation-filters="sRGB">
<feFlood flood-opacity="0" result="BackgroundImageFix"/>
<feColorMatrix in="SourceAlpha" type="matrix" values="0 0 0 0 0 0 0 0 0 0 0 0 0 0 0 0 0 0 127 0" result="hardAlpha"/>
<feOffset dy="4"/>
<feGaussianBlur stdDeviation="2"/>
<feComposite in2="hardAlpha" operator="out"/>
<feColorMatrix type="matrix" values="0 0 0 0 0 0 0 0 0 0 0 0 0 0 0 0 0 0 0.25 0"/>
<feBlend mode="normal" in2="BackgroundImageFix" result="effect1_dropShadow_575_972"/>
<feBlend mode="normal" in="SourceGraphic" in2="effect1_dropShadow_575_972" result="shape"/>
</filter>
<clipPath id="clip0_575_972">
<rect width="130.339" height="42.7676" fill="white" transform="translate(4 0.383789)"/>
</clipPath>
</defs>
</svg>
