<svg width="608" height="516" viewBox="0 0 608 516" fill="none" xmlns="http://www.w3.org/2000/svg">
<path d="M160.226 147.139C160.033 145.395 159.642 143.688 159.065 142.059C158.991 141.751 158.862 141.464 158.686 141.216C158.51 140.968 158.29 140.765 158.042 140.619C157.709 140.52 157.361 140.516 157.027 140.606L151.816 141.517C151.38 141.54 150.963 141.725 150.628 142.045C149.949 142.861 150.617 144.174 150.596 145.3C150.573 146.565 149.589 147.593 148.523 147.932C147.434 148.184 146.31 148.168 145.227 147.886L137.941 146.592C140.087 145.809 141.997 144.352 143.453 142.388C144.412 141.089 144.922 138.666 143.536 138.051C143.125 137.922 142.695 137.882 142.271 137.935C138.97 137.964 136.372 134.814 133.282 133.487C131.304 132.693 129.157 132.634 127.148 133.318C125.139 134.003 123.371 135.396 122.097 137.298L125.978 137.512C126.343 137.489 126.705 137.599 127.012 137.827C127.862 138.626 126.805 140.16 126.925 141.411C127.08 143.036 128.968 143.383 130.391 143.548C131.814 143.712 133.619 145.033 132.935 146.469C125.783 149.285 118.504 140.964 110.993 141.989C109.092 142.248 107.297 143.101 105.44 143.638C94.102 146.917 82.3801 138.169 70.7973 140.021C68.2223 140.523 65.6915 141.286 63.2349 142.301C61.6585 142.893 60.0142 143.532 58.8687 144.904C57.7233 146.276 57.2874 148.623 58.3725 150.057C55.3816 150.339 52.3708 150.012 49.4799 149.091C50.2616 149.588 50.912 150.316 51.3626 151.199C51.8133 152.082 52.0477 153.088 52.0412 154.11C47.3713 154.98 42.8251 156.565 38.5248 158.821C39.3274 160.346 40.2648 161.773 41.3224 163.08L35.4104 167.421C37.4077 167.997 38.4404 171.11 37.2789 173.054C39.3499 172.001 40.6334 169.277 42.848 168.724C44.2989 168.362 45.7752 169.041 47.1516 169.678C48.5279 170.315 50.0407 170.933 51.4655 170.455C52.8904 169.977 53.9413 167.865 53.0359 166.52C59.126 164.489 65.42 163.365 71.7619 163.176C72.2511 163.105 72.7473 163.213 73.1801 163.483C74.0056 164.138 73.7884 165.552 73.744 166.699C73.6995 167.847 74.4818 169.354 75.379 168.837C74.3235 169.883 75.2258 171.853 76.2384 172.953C77.2511 174.053 78.4716 175.571 77.8516 177.002C77.6898 177.376 77.4154 177.674 77.2597 178.051C76.8002 179.164 77.5298 180.461 78.3904 181.199C79.251 181.938 80.3052 182.454 80.903 183.477C81.5008 184.5 81.2293 186.291 80.1603 186.434L77.1219 182.024C76.0838 183.255 75.3721 184.796 75.0693 186.47C78.2914 189.481 78.776 195.608 76.0785 199.231C74.7001 201.082 72.7398 202.206 71.0289 203.65C69.3179 205.094 67.7348 207.15 67.7391 209.581C67.7465 213.78 67.4463 217.682 68.8231 221.576C71.362 228.755 74.2932 235.745 77.5994 242.504C78.4676 244.279 79.5897 246.224 81.3485 246.53C79.1257 240.345 77.1247 234.063 75.3456 227.686C76.5044 227.691 77.8435 227.796 78.5228 228.869C79.0853 229.758 78.9645 230.966 79.1393 232.044C79.3616 233.089 79.7323 234.085 80.2366 234.993L90.8512 256.604C91.7312 258.396 92.7405 260.319 94.4222 261.045C95.4975 261.508 96.7414 261.421 97.7311 262.089C98.5068 262.612 99.0293 263.542 99.8201 264.035C102.056 265.429 105.166 262.755 107.255 264.42C107.853 264.896 108.233 265.652 108.783 266.197C110.713 268.107 113.879 266.829 116.107 268.254C117.543 269.172 118.287 271.009 119.053 272.674C120.971 276.843 124.075 280.928 128.187 281.26C129.478 281.364 130.797 281.085 132.06 281.413C133.322 281.741 134.565 283 134.362 284.462C134.015 286.968 135.098 289.711 134.807 292.226C134.277 296.808 128.592 298.821 128.103 303.408C127.997 304.412 128.164 305.449 127.955 306.432C127.698 307.637 126.907 308.618 126.625 309.816C126.092 312.086 127.515 314.344 129.078 315.871C130.64 317.398 132.505 318.715 133.359 320.852C134.262 323.112 133.819 325.746 134.112 328.207C134.753 333.58 138.814 337.563 142.992 340.131C144.265 340.914 145.632 341.671 146.456 343.029C147.531 344.8 147.424 347.136 147.783 349.253C148.663 354.438 152.482 358.71 152.59 363.99C152.667 367.742 150.842 371.147 149.752 374.687C148.73 378.08 148.36 381.685 148.667 385.255C148.975 388.826 149.953 392.279 151.534 395.379C152.35 396.953 153.325 398.437 153.902 400.143C154.932 403.188 154.597 406.649 155.547 409.728C156.802 413.799 160.25 417.161 159.92 421.461C161.486 425.177 164.943 427.003 168.419 428.109L174.649 430.091C175.842 430.47 177.089 430.853 178.304 430.578C179.518 430.303 180.678 429.15 180.646 427.735C177.591 426.948 174.438 426.11 171.919 423.982C169.401 421.854 167.675 418.065 168.631 414.656C169.074 413.075 170.017 411.25 169.121 409.943C168.607 409.195 167.669 409 167.09 408.318C166.187 407.253 166.498 405.465 167.147 404.182C167.796 402.899 168.734 401.752 168.996 400.3C169.128 399.488 169.039 398.649 168.743 397.895C168.446 397.142 167.954 396.511 167.334 396.086C168.49 395.587 169.54 394.817 170.418 393.824C171.229 392.765 171.604 391.133 170.966 389.93C172.86 390.205 175.097 390.339 176.34 388.683C177.333 387.36 177.265 385.383 176.873 383.698C176.48 382.014 175.817 380.378 175.797 378.635C180.167 378.872 184.546 378.702 188.892 378.128C188.264 375.709 186.836 373.664 184.911 372.428C186.879 372.048 188.672 369.354 189.294 367.186C189.916 365.018 189.757 362.656 189.373 360.417C189.225 359.841 189.205 359.231 189.314 358.644C189.536 357.836 190.23 357.344 190.872 356.922L200.642 350.509C201.225 350.175 201.753 349.729 202.204 349.191C203.228 347.816 203.076 345.742 202.552 344.039C202.028 342.337 201.188 340.736 200.986 338.946C200.383 333.592 205.396 329.751 207.089 324.711C207.753 322.734 207.888 320.584 208.016 318.471C208.154 316.201 208.165 313.565 206.64 312.102C205.178 310.7 202.895 311.013 201.365 309.709C199.963 308.513 199.48 306.191 197.948 305.225C196.557 304.348 194.813 304.906 193.266 304.494C190.541 303.767 188.827 300.179 186.045 299.847C184.476 299.659 182.699 300.536 181.413 299.491C180.279 298.571 180.234 296.72 180.018 295.15C179.64 292.709 178.616 290.46 177.085 288.705C175.555 286.95 173.59 285.773 171.456 285.333C169.838 285.036 168.076 285.149 166.699 284.132C165.305 283.103 164.666 281.175 163.571 279.75C161.806 277.452 159.026 276.636 156.422 275.936L145.83 273.09C143.95 272.585 141.526 272.317 140.517 274.2C140.219 274.916 140.007 275.677 139.889 276.459C139.511 277.874 138.75 279.116 137.716 280.006C136.681 280.896 135.427 281.388 134.132 281.411C133.245 279.681 131.807 278.409 130.118 277.861C129.044 277.519 127.894 277.481 126.87 276.978C126.312 276.666 125.816 276.228 125.411 275.69C125.007 275.152 124.702 274.525 124.517 273.848C124.332 273.171 124.269 272.458 124.333 271.752C124.398 271.046 124.587 270.363 124.89 269.744C125.501 268.501 125.737 267.063 125.562 265.652C125.386 264.241 124.809 262.935 123.92 261.935C122.119 260.087 119.513 259.641 117.098 259.825C116.465 258.248 117.523 256.468 118.663 255.321C119.803 254.175 121.187 253.048 121.435 251.336C121.825 248.643 118.819 246.597 116.536 247.4C114.254 248.203 112.797 250.737 111.834 253.235C111.281 254.669 110.811 256.178 109.94 257.386C109.068 258.595 107.664 259.46 106.337 259.072C104.457 258.523 103.731 255.971 103.315 253.805C102.757 250.899 102.196 247.953 102.313 244.981C102.43 242.009 103.306 238.958 105.224 236.946C108.348 233.667 113.141 233.988 117.358 234.511C116.362 233.228 116.608 231.066 117.674 229.859C118.236 229.287 118.912 228.881 119.643 228.676C120.374 228.471 121.138 228.472 121.868 228.681C123.139 228.983 124.284 229.765 125.118 230.902C126.316 232.571 126.657 234.826 127.563 236.721C128.469 238.617 130.505 240.233 132.172 239.217C133.612 238.338 133.84 236.056 133.482 234.236C133.124 232.417 132.363 230.647 132.492 228.787C132.74 225.239 135.958 223.104 138.797 221.642C141.637 220.181 144.888 218.216 145.338 214.694C145.354 214.004 145.468 213.322 145.675 212.675C145.99 212.103 146.428 211.632 146.947 211.308C155.234 205.048 163.659 198.712 173.131 195.291C173.624 195.113 173.682 195.311 174.184 195.171C174.887 194.707 174.421 193.423 173.747 192.905C173.073 192.388 172.173 191.991 172.002 191.084C171.876 190.417 172.22 189.762 172.309 189.088C172.528 187.431 170.794 185.9 169.447 186.563C168.686 185.411 170.192 184.073 171.409 183.69C175.064 182.54 178.817 181.839 182.603 181.6C183.039 181.521 183.487 181.608 183.876 181.848C184.512 182.351 184.431 183.506 183.98 184.224C183.53 184.943 182.829 185.394 182.267 186.002C181.654 186.685 181.216 187.548 181.002 188.496C180.788 189.444 180.806 190.44 181.054 191.377C183.031 192.527 185.179 193.709 187.368 193.305C189.557 192.9 191.499 190.089 190.471 187.844C189.513 185.753 186.635 185.282 186.14 182.99C185.56 180.308 188.883 177.922 188.134 175.294C187.807 174.143 186.803 173.466 186.033 172.635C185.124 171.616 184.505 170.307 184.259 168.879C184.012 167.451 184.149 165.971 184.652 164.634C183.397 164.886 182.109 164.791 180.893 164.356C179.678 163.922 178.571 163.16 177.667 162.136C175.996 160.209 174.663 157.168 172.291 157.255C170.113 157.334 168.238 160.237 166.202 159.351C165.702 159.133 165.174 158.69 164.688 158.95C164.529 159.068 164.396 159.225 164.298 159.411C164.2 159.597 164.14 159.805 164.124 160.021C163.606 162.848 164.496 166.069 163.148 168.512C161.681 171.171 158.288 171.539 156.51 173.937C155.544 175.238 155.17 176.991 154.283 178.363C153.396 179.735 151.512 180.607 150.447 179.412C150.971 178.182 151.114 176.786 150.853 175.451C150.592 174.117 149.943 172.923 149.011 172.064C148.023 171.327 146.957 170.734 145.839 170.301C144.59 169.696 143.402 168.939 142.295 168.043C141.741 167.661 141.29 167.11 140.994 166.452C140.76 165.628 140.791 164.736 141.083 163.936C141.623 162.166 142.576 160.599 143.838 159.403C145.1 158.207 146.625 157.428 148.246 157.15C149.664 156.93 151.314 157.007 152.252 155.772C152.749 155.119 153.009 154.131 153.73 153.866C154.191 153.76 154.67 153.827 155.094 154.058L160.386 156.187C160.977 156.492 161.627 156.615 162.272 156.543C162.591 156.494 162.883 156.309 163.088 156.024C163.293 155.739 163.396 155.376 163.377 155.008C163.208 154.004 161.855 153.522 161.978 152.508C162.047 152.18 162.202 151.883 162.421 151.657C164.331 149.334 166.667 147.522 169.261 146.351C171.855 145.18 174.644 144.679 177.428 144.884C178.095 146.138 177.039 147.623 176.16 148.693C175.281 149.764 174.575 151.676 175.638 152.5C176.073 152.754 176.558 152.879 177.047 152.863C178.35 153.065 179.616 153.503 180.797 154.163C182.626 155.073 184.42 156.068 186.178 157.149C186.023 155.824 185.875 154.428 186.314 153.188C186.754 151.949 188.003 150.977 189.094 151.46C190.145 151.925 190.684 153.516 191.804 153.662C193.299 153.856 193.888 151.333 193.264 149.769C192.64 148.205 191.404 146.896 191.301 145.181C191.232 144.024 191.617 142.589 190.808 141.889C190.521 141.678 190.194 141.547 189.854 141.506L169.666 137.26C168.467 137.008 166.735 137.201 166.682 138.593C166.652 139.37 167.259 140.139 166.99 140.853C166.703 141.616 165.76 141.546 165.074 141.815C164.008 142.234 163.473 143.68 163.576 144.963C163.763 146.237 164.195 147.448 164.84 148.51C163.527 147.882 161.539 147.767 160.226 147.139Z" fill="white"/>
<path d="M144.117 127.551C142.844 127.069 141.472 127.047 140.188 127.486C138.903 127.926 137.768 128.807 136.936 130.009C136.604 130.509 136.324 131.199 136.603 131.74C137.002 132.517 138.018 132.21 138.768 131.933C139.869 131.483 141.068 131.45 142.188 131.839C142.891 132.115 143.521 132.604 144.228 132.869C144.572 133.034 144.949 133.088 145.318 133.027C145.687 132.965 146.034 132.79 146.323 132.519C146.808 131.954 146.838 131.075 146.839 130.283C146.873 130.018 146.854 129.747 146.785 129.492C146.716 129.236 146.597 129.001 146.438 128.804C146.155 128.617 145.837 128.509 145.511 128.491C144.779 128.336 144.118 127.894 143.641 127.242" fill="white"/>
<path d="M151.397 125.234C151.112 125.216 150.828 125.283 150.572 125.427C150.316 125.571 150.096 125.788 149.935 126.057C149.774 126.325 149.675 126.637 149.65 126.962C149.624 127.287 149.672 127.614 149.789 127.911C150.664 128.184 151.578 128.252 152.477 128.112C152.925 128.032 153.343 127.803 153.677 127.452C154.011 127.102 154.247 126.646 154.355 126.143C153.297 126.363 152.206 126.125 151.293 125.475" fill="white"/>
<path d="M175.82 121.365C173.439 121.944 171.126 122.842 168.929 124.041C169.964 124.496 170.845 125.319 171.44 126.39C172.036 127.46 172.314 128.72 172.236 129.986C172.143 130.471 172.154 130.975 172.267 131.455C172.52 132.157 173.254 132.42 173.898 132.6C175.057 133.003 176.267 133.179 177.477 133.122C178.082 133.086 178.669 132.877 179.187 132.516C179.704 132.155 180.134 131.652 180.438 131.053C180.614 130.485 180.819 129.929 181.054 129.389C182.6 126.699 187.191 129.952 188.851 127.351C189.435 126.435 189.382 125.056 190.144 124.331C190.538 124.014 190.995 123.815 191.473 123.751C194.81 122.993 198.181 122.444 201.571 122.107C203.177 121.947 205.27 121.288 205.283 119.445C199.234 118.088 192.962 119.052 187.441 122.189C185.453 123.328 182.822 125.723 180.906 124.213C180.189 123.648 180.224 122.126 179.237 121.49C178.228 120.841 176.892 121.105 175.82 121.365Z" fill="white"/>
<path d="M195.603 125.594L198.443 126.217C197.92 126.191 197.398 126.292 196.913 126.514C196.427 126.736 195.988 127.075 195.626 127.506C195.263 127.937 194.986 128.452 194.811 129.016C194.636 129.58 194.569 130.179 194.613 130.775C197.273 131.791 200.172 130.803 202.973 130.938C205.774 131.072 209.033 133.36 208.555 136.517C208.411 137.472 207.928 138.426 208.179 139.352C208.355 140 208.855 140.461 209.138 141.058C209.727 142.303 209.256 143.878 208.513 145.009C207.769 146.141 206.77 147.044 206.118 148.247C204.495 151.238 205.417 155.105 206.383 158.447C206.663 159.71 207.179 160.888 207.896 161.9C209.329 163.641 211.663 163.792 213.753 163.827C215.274 163.853 217.017 163.767 217.98 162.419C219.236 160.66 218.357 157.916 219.184 155.851C219.935 153.976 221.849 153.172 223.583 152.602C226.759 151.556 229.996 150.668 232.999 149.089C236.727 147.129 240.212 144.074 244.311 143.821C245.46 143.751 246.639 143.906 247.746 143.546C248.854 143.186 249.906 142.091 249.822 140.779C249.75 139.657 248.92 138.834 248.271 137.988C247.623 137.143 247.113 135.843 247.709 134.948L258.452 132.655C257.69 130.283 257.097 127.159 258.847 125.615C259.478 125.058 260.323 124.835 260.861 124.162C261.777 123.014 261.316 121.037 260.259 120.061C259.201 119.085 257.771 118.858 256.417 118.729C251.706 118.282 246.969 118.578 242.25 118.873C233.025 119.451 223.799 120.029 214.574 120.607C212.717 120.724 210.573 120.546 208.869 121.27C207.427 121.883 206.402 123.009 204.753 123.404C201.708 124.134 198.358 123.64 195.603 125.594Z" fill="white"/>
<path d="M246.474 151.249C246.185 151.196 245.889 151.273 245.648 151.463C245.488 151.664 245.393 151.921 245.379 152.191C245.195 153.386 245.414 154.616 245.99 155.635C246.284 156.134 246.689 156.535 247.164 156.795C247.639 157.056 248.166 157.166 248.691 157.115C249.969 156.928 250.911 155.681 252.087 155.073C253.899 154.136 261.593 152.676 256.27 149.389C254.436 148.256 253.251 149.256 251.805 150.002C250.161 150.964 248.317 151.395 246.474 151.249Z" fill="white"/>
<path d="M293.092 123.738C292.47 124.029 291.951 124.546 291.613 125.209C291.458 125.546 291.422 125.939 291.513 126.305C291.603 126.672 291.814 126.984 292.1 127.178C292.333 127.275 292.579 127.319 292.825 127.31L295.352 127.396C296.426 127.433 297.767 127.694 298.055 128.877C298.269 129.755 297.79 130.883 298.369 131.51C298.617 131.73 298.915 131.863 299.228 131.894C300.061 132.138 300.93 132.17 301.774 131.987C303.613 131.424 302.647 130.141 303.226 128.999C304.112 127.252 303.959 128.309 305.52 127.308C306.673 126.568 308.163 125.226 307.2 123.341C305.527 120.063 295.561 122.33 293.092 123.738Z" fill="white"/>
<path d="M342.968 122.09L341.501 122.314C338.192 122.819 334.864 123.328 331.677 124.464C333.057 125.087 334.504 125.493 335.98 125.67C336.792 125.716 337.598 125.847 338.39 126.062C339.797 126.541 341.216 127.778 342.575 127.144C343.419 126.751 343.694 125.748 344.392 125.216C344.875 124.849 346.704 124.254 346.908 123.884C348.562 120.887 344.239 121.896 342.968 122.09Z" fill="white"/>
<path d="M349.412 129.713C347.452 130.966 345.633 132.488 343.997 134.246C343.307 134.986 342.603 135.908 342.666 136.987C342.749 138.421 344.086 139.253 345.244 139.814L349.934 142.084C350.504 141.167 349.983 139.901 349.395 139C348.806 138.099 348.108 137.057 348.367 135.973C348.664 134.736 349.984 134.314 351.09 134.101C352.893 133.754 357.757 133.782 357.173 130.46C356.484 126.547 351.222 128.557 349.412 129.713Z" fill="white"/>
<path d="M348.468 351.189C348.022 352.667 347.979 354.408 348.752 355.698C349.619 357.145 351.353 357.685 352.854 357.318C354.349 356.863 355.681 355.884 356.663 354.519C357.561 353.375 358.3 352.08 358.854 350.679C359.626 348.496 360.171 346.217 360.477 343.888L361.934 335.148C362.259 333.194 362.247 327.205 359.106 329.157C358.247 329.69 356.261 333.898 355.361 335.092C353.741 337.243 353.526 339.33 352.673 341.936C351.604 345.2 349.456 347.92 348.468 351.189Z" fill="white"/>
<path d="M514.372 395.917C513.344 395.458 512.346 394.915 511.387 394.292C510.425 397.316 509.913 400.502 509.874 403.718L516.907 399.169C517.965 398.485 519.164 397.534 519.141 396.145C519.151 395.973 519.12 395.802 519.051 395.649C518.983 395.496 518.88 395.367 518.752 395.275C518.596 395.203 518.426 395.18 518.259 395.209C517.217 395.308 516.266 395.895 515.282 396.303C514.298 396.71 513.148 396.926 512.245 396.321" fill="white"/>
<path d="M551.473 398.617C550.701 398.857 549.947 399.167 549.217 399.542C547.603 400.481 546.505 402.264 545.053 403.5C543.663 404.683 541.99 405.333 540.348 405.964C539.864 406.452 540.086 407.436 540.611 407.864C541.175 408.231 541.821 408.397 542.468 408.342C544.175 408.385 545.972 408.403 547.467 407.461C548.309 406.837 549.097 406.122 549.82 405.326C551.568 403.66 553.666 402.56 555.744 401.498C556.5 401.171 557.199 400.694 557.808 400.087C559.114 398.617 559.206 396.349 557.323 395.849C555.802 395.445 552.921 398.082 551.473 398.617Z" fill="white"/>
<path d="M567.866 386.378C567.95 385.367 567.833 384.346 567.522 383.395C567.211 382.443 566.715 381.584 566.071 380.883C566.051 382.907 565.998 385.063 565.002 386.736C564.292 387.929 563.18 388.734 562.403 389.87C561.625 391.006 561.28 392.806 562.192 393.803C562.775 394.31 563.485 394.589 564.217 394.6C566.032 394.844 568.133 394.98 569.406 393.481C570.101 392.663 570.439 391.452 571.286 390.85C571.602 390.699 571.884 390.468 572.111 390.176C572.461 389.54 571.905 388.702 571.279 388.473C570.653 388.244 569.964 388.351 569.335 388.134C568.706 387.916 568.129 387.108 568.451 386.454" fill="white"/>
<path d="M538.73 312.181C537.778 312.446 536.792 312.512 535.819 312.378C534.203 312.038 532.946 310.646 531.641 309.505C528.54 306.806 524.77 305.3 520.874 305.205C517.329 305.128 513.751 306.226 510.27 305.46C510.497 306.906 511.58 307.991 512.735 308.635C513.89 309.28 515.165 309.604 516.325 310.236C518.184 311.257 519.658 313.01 520.478 315.174C520.852 316.171 521.087 317.256 521.653 318.127C522.81 319.907 525.004 320.298 526.94 320.152C529.464 319.963 532.101 319.133 534.449 320.208C536.246 321.03 537.531 322.827 539.031 324.225C540.531 325.622 542.644 326.659 544.366 325.651C542.577 324.989 541.02 323.691 539.922 321.946C538.825 320.2 538.243 318.1 538.264 315.951C539.953 316.128 544.819 316.06 544.557 312.779C544.335 309.998 540.181 311.881 538.73 312.181Z" fill="white"/>
<path d="M516.631 334.804C516.931 332.924 518.572 331.263 518.061 329.443C517.707 328.185 516.43 327.563 515.274 327.532C514.118 327.501 512.982 327.895 511.826 327.932C511.074 327.886 510.32 327.898 509.569 327.968C507.274 328.4 505.86 331.149 503.697 332.126C502.382 332.721 500.905 332.607 499.537 333.018C496.433 333.951 494.469 337.304 492.299 340.007C488.793 344.355 484.225 347.4 479.187 348.747C477.422 349.214 475.524 349.513 474.121 350.823C472.264 352.558 471.806 355.533 471.393 358.234C470.251 365.694 468.506 373.018 466.179 380.109L473.551 381.185C474.952 381.389 476.404 381.59 477.755 381.115C478.736 380.692 479.665 380.126 480.52 379.432C483.803 377.102 487.477 375.586 491.305 374.982C493.235 374.679 495.259 374.623 497.071 375.444C498.882 376.264 500.436 378.123 500.588 380.344C501.371 380.065 502.206 380.035 503.003 380.257C503.8 380.478 504.53 380.943 505.114 381.602C506.268 382.946 507.024 384.671 507.275 386.532C507.469 387.685 507.663 389.066 508.599 389.55C509.362 389.944 510.238 389.519 511.073 389.443C513.907 389.184 516.259 392.961 519.044 392.31C522.032 391.613 522.765 386.499 525.68 385.475C527.354 384.886 529.702 385.602 530.503 383.822C531.21 382.253 529.8 380.443 529.945 378.687C530.124 376.524 532.356 375.606 534.077 374.683C540.009 371.502 542.824 362.376 539.949 355.646C538.246 351.658 534.895 348.519 534.276 344.138C533.8 340.768 534.962 336.838 533.082 334.185C532.126 332.835 530.507 332.09 529.938 330.48C529.579 329.466 529.723 328.316 529.53 327.245C529.338 326.174 528.52 325.054 527.595 325.332C524.91 326.137 524.053 335.619 522.615 337.923C520.43 341.425 515.943 339.119 516.631 334.804Z" fill="white"/>
<path d="M466.995 315.764C466.077 315.47 465.075 315.18 464.196 315.6C463.316 316.021 462.803 317.496 463.509 318.229C469.03 317.983 474.584 317.739 480.058 318.596C486.365 319.583 492.607 322.029 498.942 321.309C495.323 320.089 491.645 319.113 487.926 318.388L481.725 317.033C480.061 316.635 478.38 316.338 476.689 316.144C473.151 315.81 470.473 316.879 466.995 315.764Z" fill="white"/>
<path d="M472.522 293.786C472.064 293.742 471.496 293.704 471.259 294.155C471.032 294.585 471.291 295.154 471.17 295.636C471.003 296.295 470.248 296.464 469.653 296.374C469.057 296.284 468.414 296.069 467.886 296.397C467.619 296.606 467.418 296.909 467.314 297.259C467.209 297.609 467.207 297.989 467.308 298.341C467.523 299.04 467.872 299.675 468.329 300.201C469.108 301.324 469.997 302.343 470.977 303.238C472.875 304.839 475.445 305.61 476.641 307.934C476.809 308.385 477.068 308.783 477.397 309.098C477.971 309.513 478.719 309.197 479.337 308.874L481.502 307.744C481.892 307.583 482.24 307.312 482.514 306.957C483.009 306.189 482.705 305.099 482.29 304.272C481.875 303.446 481.343 302.59 481.432 301.643C481.591 299.953 483.492 299.307 484.273 297.861C485.061 296.404 484.548 294.527 484.639 292.817C484.745 290.817 485.844 288.216 484.076 286.722C482.573 285.453 481.136 286.626 480.057 288.028C477.781 290.984 476.705 294.185 472.522 293.786Z" fill="white"/>
<path d="M485.666 263.909C486.405 265.527 487.946 266.493 488.752 268.068C489.626 269.776 489.526 271.983 490.474 273.638C491.447 275.336 493.404 276.238 493.949 278.17C494.545 280.279 493.194 282.842 494.271 284.684C494.472 284.986 494.725 285.236 495.015 285.419C495.305 285.603 495.625 285.715 495.955 285.75C496.285 285.785 496.617 285.74 496.932 285.62C497.246 285.501 497.535 285.307 497.78 285.053C498.234 284.488 498.477 283.742 498.458 282.976C498.438 282.209 498.157 281.481 497.674 280.947C497.036 280.283 496.121 279.996 495.588 279.22C495.311 278.772 495.126 278.258 495.048 277.716C494.758 276.155 494.805 274.536 495.184 272.999C495.326 272.61 495.362 272.18 495.287 271.766C495.048 270.969 494.104 270.913 493.442 270.544C491.939 269.705 491.975 267.279 492.238 265.39C492.063 266.648 488.144 264.509 487.733 263.796C486.918 262.381 487.362 259.652 487.201 258.088C485.44 259.057 484.762 261.931 485.666 263.909Z" fill="white"/>
<path d="M446.183 288.802C445.459 287.876 444.37 286.908 443.4 287.466C442.66 287.892 442.457 289.062 442.747 289.949C443.1 290.811 443.644 291.552 444.325 292.1C446.346 294.005 448.522 295.724 450.285 297.939C453.44 301.902 455.112 307.25 458.543 310.901C459.233 311.747 460.146 312.312 461.143 312.509C462.143 312.615 463.266 311.884 463.38 310.744C463.475 309.805 462.902 308.964 462.343 308.268C461.01 306.611 459.55 305.086 458.292 303.354C457.711 302.689 457.346 301.817 457.257 300.882C457.25 299.95 457.994 298.974 458.784 299.205C457.823 298.924 457.11 297.094 455.7 296.75C454.521 296.462 454.235 297.297 452.832 296.609C450.156 295.297 448.057 291.2 446.183 288.802Z" fill="white"/>
<path d="M509.062 198.679C508.295 198.418 507.54 198.11 506.801 197.756C504.815 197.074 502.186 198.743 502.45 201.095C502.626 202.658 503.899 203.711 504.601 205.067C505.643 207.077 505.366 209.626 504.818 211.877C504.684 212.574 504.428 213.233 504.066 213.814C503.561 214.429 502.956 214.926 502.286 215.278C499.603 216.998 497.236 219.296 495.318 222.045C495.109 222.298 494.964 222.612 494.897 222.951C494.802 223.745 495.5 224.324 495.895 224.986C496.772 226.457 496.138 228.437 496.225 230.214C496.212 230.465 496.255 230.716 496.35 230.943C496.445 231.17 496.59 231.366 496.77 231.511C497.299 231.818 497.925 231.297 498.211 230.703C499.162 228.734 498.446 225.574 500.229 224.625C500.567 224.445 500.976 224.37 501.201 224.031C501.558 223.493 501.213 222.698 501.394 222.055C501.666 221.091 502.82 221.048 503.706 221.091C505.231 221.163 506.756 220.931 508.212 220.405C508.783 220.25 509.302 219.906 509.704 219.417C510.237 218.657 510.19 217.575 510.083 216.609C509.55 211.788 508.214 207.128 506.148 202.882C507.714 203.111 509.419 203.309 510.771 202.375C511.528 201.853 512.436 200.29 512.06 199.226C511.466 197.544 510.394 198.96 509.062 198.679Z" fill="white"/>
<path d="M308.206 225.192C308.394 226.341 308.578 227.552 308.249 228.658C307.919 229.765 306.882 230.69 305.904 230.351C305.144 230.088 304.705 229.215 304.165 228.549C301.165 224.847 294.397 226.99 292.543 222.41C291.787 220.541 292.301 218.302 291.785 216.328C291.459 215.188 290.812 214.203 289.944 213.529C289.076 212.855 288.036 212.53 286.989 212.604C286.033 212.762 285.103 213.079 284.229 213.546C278.369 216.228 272.217 217.987 265.943 218.774C264.75 218.857 263.571 219.102 262.429 219.504C259.853 220.572 258.092 223.302 256.839 226.088C255.587 228.874 254.662 231.89 252.982 234.365C251.217 236.966 248.743 238.788 246.436 240.758C245.547 241.413 244.807 242.299 244.277 243.345C243.776 244.519 243.805 245.884 243.843 247.189L244.315 263.038C244.376 265.076 244.452 267.188 245.25 269.012C246.247 271.29 248.216 272.782 249.582 274.794C250.976 276.862 251.702 279.417 251.638 282.027C251.609 283.076 251.517 284.317 252.232 284.976C252.667 285.298 253.176 285.466 253.694 285.457L272.451 287.211C275.75 287.52 279.406 288.027 281.561 290.901C282.577 292.257 283.394 294.207 284.951 294.352C285.619 294.415 286.269 294.101 286.937 294.041C288.622 293.888 290.103 295.35 291.038 296.961C292.452 299.416 293.094 302.347 292.858 305.274C292.705 307.111 292.207 308.897 292.099 310.739C291.69 317.746 296.887 323.833 296.988 330.855C297.047 334.985 295.332 338.843 293.659 342.505C296.358 347.179 294.148 353.402 295.223 358.866C296.242 364.049 300.024 368.107 300.966 373.31C301.397 375.692 301.422 378.623 303.26 379.849C304.066 380.298 304.96 380.503 305.855 380.443C311.256 380.516 316.595 379.127 321.436 376.389C323.709 375.1 326.063 373.176 326.46 370.313C326.78 368.004 325.755 365.421 326.798 363.409C328.027 361.039 331.175 361.226 332.983 359.404C335.916 356.447 333.629 350.808 334.817 346.549C335.886 342.721 339.563 340.687 341.386 337.251C342.103 335.773 342.618 334.179 342.912 332.522C343.747 328.564 344.267 324.528 344.465 320.463C344.514 317.993 344.673 315.527 344.943 313.076C346.908 299.12 358.979 289.775 362.898 276.368C363.272 275.088 363.448 273.382 362.451 272.658C361.86 272.336 361.19 272.255 360.553 272.431L351.907 273.677C350.833 273.831 349.695 273.976 348.709 273.466C347.722 272.956 347.015 271.53 347.539 270.447C349.007 267.407 345.986 263.565 344.644 260.449C341.03 252.059 336.726 244.081 331.79 236.622C331.474 236.238 331.277 235.747 331.227 235.224L333.681 235.317C332.852 231.92 331.485 228.202 328.598 226.959C326.97 226.259 325.168 226.501 323.432 226.609C318.459 226.92 313.128 226.062 308.206 225.192Z" fill="white"/>
<path d="M323.436 148.631C324.738 150.21 326.196 151.885 328.079 152.16C331.404 152.647 333.795 148.716 335.317 145.302C335.374 146.172 335.725 146.983 336.296 147.562C336.868 148.141 337.614 148.443 338.377 148.402C339.198 148.244 339.981 147.894 340.678 147.374C347.267 143.258 354.647 141.078 362.155 141.028C362.083 140.378 362.224 139.72 362.551 139.182C362.878 138.644 363.368 138.263 363.926 138.114C365.453 137.768 366.828 139.276 367.565 140.843C368.301 142.41 368.76 144.227 369.93 145.4C371.1 146.573 373.365 146.522 373.828 144.823C374.271 143.192 372.785 141.802 371.55 140.84C370.315 139.879 369.014 138.099 369.845 136.68C376.154 135.084 382.502 133.482 388.957 133.165C390.056 133.209 391.151 132.993 392.174 132.531C393.159 131.979 393.941 130.726 393.676 129.509C392.268 129.888 390.792 129.778 389.438 129.195C388.084 128.611 386.913 127.579 386.074 126.232C395.031 125.387 404.558 124.667 412.496 129.484C413.449 131.822 408.594 133.766 409.893 135.875C410.307 136.547 411.137 136.626 411.857 136.641C417.373 136.758 422.921 136.873 428.375 135.921C430.369 135.573 432.382 135.082 434.383 135.364C437.716 135.834 440.567 138.376 443.846 139.205C445.181 139.542 446.677 139.553 447.802 138.666C448.927 137.779 449.411 135.759 448.489 134.605C451.576 131.146 456.7 132.004 460.773 133.659C464.847 135.315 468.705 137.986 473.016 138.355C476.108 138.619 479.242 137.669 482.296 138.273C484.216 138.653 486.002 139.629 487.878 140.228C491.427 141.363 495.18 141.123 498.864 141.178C508.264 141.322 517.561 143.434 526.296 147.408C527.432 147.831 528.473 148.534 529.345 149.467C530.158 150.462 530.572 152.008 530.026 153.217L521.001 151.71C521.851 153.623 524.051 153.949 525.838 154.609C527.624 155.27 529.477 157.525 528.403 159.285C526.467 158.581 524.713 160.793 523.735 162.828C522.757 164.864 521.566 167.301 519.537 167.425C517.721 167.536 515.524 165.768 514.339 167.347C515.975 169.705 517.376 172.265 518.516 174.979C519.686 177.764 520.519 181.274 518.938 183.78C518.689 184.228 518.312 184.562 517.871 184.726C516.579 185.1 515.74 183.294 514.814 182.2C513.647 180.821 511.883 180.43 510.302 179.783C508.722 179.137 507.057 177.864 506.934 175.951C506.857 174.761 507.407 173.654 507.812 172.554C508.493 170.699 508.79 168.69 508.682 166.683C508.593 165.068 508.197 163.388 507.182 162.26C506.168 161.132 504.416 160.774 503.327 161.807C502.818 162.289 502.411 163.061 501.751 163.089C500.585 163.14 499.689 160.816 498.751 161.61C498.861 162.455 498.708 163.318 498.318 164.047C495.518 166.83 491.216 165.653 487.607 166.636C485.89 167.197 484.247 168.018 482.72 169.075C482.149 169.354 481.663 169.821 481.323 170.415C480.872 171.416 481.369 172.698 482.163 173.363C483.006 173.954 483.952 174.323 484.934 174.444C489.335 175.397 493.8 176.872 497.274 180.103C500.749 183.333 503.027 188.674 501.927 193.637L493.249 184.159C493.579 188.138 493.766 192.129 493.81 196.13C493.866 196.912 493.773 197.698 493.535 198.433C492.917 199.995 491.24 200.521 489.77 200.865C489.362 200.954 488.974 201.141 488.633 201.413C488.292 201.685 488.005 202.037 487.791 202.444C487.577 202.852 487.441 203.307 487.392 203.78C487.343 204.252 487.382 204.73 487.507 205.184C488.029 207.129 489.33 208.645 490.522 210.156C491.714 211.667 492.887 213.385 493.043 215.411C493.199 217.438 491.861 219.722 490.086 219.581C488.74 219.475 487.741 218.097 487.167 216.702C486.593 215.306 486.251 213.751 485.388 212.565C482.777 208.976 476.913 210.514 474.573 206.687C473.977 207.46 473.564 208.395 473.372 209.402C473.181 210.409 473.218 211.455 473.479 212.441C474.568 211.663 476.057 212.386 476.875 213.517C477.693 214.649 478.078 216.099 478.72 217.37C479.587 219.085 480.966 220.605 481.087 222.58C481.055 223.327 481.066 224.076 481.12 224.821C481.334 226.018 482.219 226.877 482.833 227.878C484.261 230.205 484.19 233.403 483.27 236.044C482.35 238.686 480.696 240.893 479.059 243.032C476.198 246.769 473.279 250.485 469.888 253.588C468.92 254.474 467.888 255.345 467.285 256.583C466.682 257.821 466.652 259.559 467.578 260.501C466.915 260.539 465.727 260.911 465.064 260.949C464.831 257.911 464.78 254.858 464.912 251.811C462.297 250.376 459.482 254.22 459.819 257.513C460.157 260.806 462.241 263.449 463.724 266.298C464.809 268.382 465.616 270.811 465.253 273.2C464.891 275.589 463.025 277.793 460.912 277.582C457.55 277.247 456.144 271.731 452.816 271.1C452.522 271.021 452.214 271.056 451.94 271.2C451.446 271.51 451.36 272.265 451.332 272.909C451.196 276.067 451.078 279.351 452.156 282.262C453.734 286.522 457.811 290.1 456.956 294.621C452.349 292.174 449.954 286.269 448.867 280.598C447.779 274.926 447.598 268.972 445.649 263.61C444.169 265.779 441.058 263.986 439.705 261.711C438.423 259.555 437.634 257.06 436.39 254.874C435.146 252.688 433.24 250.731 430.962 250.611C428.572 250.485 426.5 252.359 424.678 254.13C423.179 255.586 421.641 257.099 420.765 259.112C419.49 262.041 419.824 265.494 419.763 268.764C419.696 272.3 419.041 276.03 416.932 278.619C414.824 281.207 410.932 282.109 408.607 279.776C407.393 278.558 406.805 276.738 406.282 274.992C403.758 266.573 401.656 257.996 399.986 249.303C399.595 251.287 398.071 253.844 396.615 252.675C396.288 252.361 396.023 251.971 395.838 251.532C393.122 246.27 388.092 243.114 383.01 241.221C377.928 239.329 372.581 238.446 367.555 236.367C364.738 235.201 362.048 233.669 359.538 231.802C358.898 232.877 358.524 234.129 358.456 235.427C358.388 236.725 358.629 238.02 359.152 239.174C360.267 241.43 362.79 242.736 364.949 241.947C366.065 241.54 367.008 240.654 368.115 240.217C369.222 239.78 370.709 239.994 371.193 241.214C371.656 242.381 370.956 243.793 371.303 245.011C371.832 246.867 374.282 247.01 375.138 248.699C375.775 249.956 375.251 251.625 374.341 252.639C373.431 253.653 372.217 254.209 371.107 254.915C367.503 257.205 364.941 261.115 361.792 264.157C358.642 267.199 354.199 269.42 350.446 267.468C351.341 262.291 345.944 258.489 344.952 253.335C344.625 251.638 344.794 249.836 344.328 248.182C343.652 245.789 341.794 244.143 340.27 242.329C338.421 240.105 336.981 237.48 336.034 234.609C335.087 231.738 334.653 228.68 334.757 225.614C334.84 223.484 335.182 221.319 334.757 219.243C334.333 217.166 332.829 215.157 330.965 215.251C326.708 215.466 321.345 215.827 319.112 211.68C318.315 210.199 317.968 208.031 319.12 206.897C319.933 206.097 321.134 206.172 322.201 206.293L331.792 207.371C334.036 207.623 336.461 207.831 338.386 206.491C340.311 205.15 341.145 201.592 339.362 200.015C338.06 198.863 335.726 198.925 335.348 197.093C335.033 195.568 336.51 193.836 335.712 192.561C335.14 191.647 333.853 191.9 333.074 192.586C332.294 193.271 331.729 194.274 330.856 194.793C329.326 195.703 327.497 194.837 325.851 194.248C324.204 193.659 321.997 193.609 321.198 195.357C320.305 197.312 321.99 199.873 321.104 201.832C319.932 204.422 315.963 202.948 314.317 205.176C312.428 207.732 315.602 211.544 314.965 214.81C314.152 215.27 313.248 215.481 312.342 215.423C311.436 215.365 310.559 215.039 309.796 214.478C309.045 213.894 308.447 213.089 308.065 212.149C307.683 211.208 307.531 210.166 307.626 209.134C307.784 207.665 308.454 206.166 308.005 204.777C307.642 203.655 306.656 202.987 305.739 202.408L296.419 196.521C295.554 198.356 296.648 200.63 298.016 202.008C299.384 203.387 301.098 204.425 301.996 206.238C302.565 207.495 302.692 208.952 302.353 210.312C302.013 211.673 301.232 212.834 300.169 213.558C300.035 213.663 299.884 213.734 299.724 213.766C299.565 213.797 299.401 213.789 299.245 213.742C299.096 213.642 298.966 213.509 298.864 213.351C298.761 213.193 298.687 213.013 298.646 212.821C297.001 208.011 294.532 203.268 290.585 200.755C286.637 198.243 280.965 198.759 278.376 202.992C277.762 203.998 277.349 205.144 276.813 206.207C273.968 211.854 267.867 214.528 262.168 214.354C261.61 214.389 261.055 214.24 260.57 213.924C259.649 213.197 259.69 211.654 259.831 210.385L260.429 204.998C260.55 203.916 260.724 202.72 261.473 202.045C262.529 201.093 264.052 201.694 265.397 201.672C266.415 201.617 267.395 201.206 268.202 200.494C269.009 199.782 269.606 198.803 269.91 197.69C270.182 196.567 270.18 195.38 269.905 194.257C269.63 193.135 269.092 192.119 268.35 191.32C267.734 190.659 266.906 189.828 267.232 188.936C267.362 188.689 267.537 188.478 267.746 188.317C267.955 188.156 268.192 188.049 268.441 188.005C270.857 187.203 273.409 186.993 275.784 186.047C278.159 185.101 280.462 183.165 281.025 180.363C281.197 179.505 281.276 178.465 281.951 178.039C282.289 177.875 282.653 177.791 283.02 177.789C284.308 177.58 285.48 176.827 286.307 175.679C287.133 174.531 287.554 173.071 287.485 171.586C288.624 170.677 290.218 171.346 291.32 172.313C292.421 173.28 293.393 174.557 294.733 174.974C297.23 175.751 299.643 173.224 302.231 173.212C303.319 173.207 304.446 173.647 305.47 173.225C306.507 172.798 307.127 171.617 307.924 170.745C308.72 169.872 310.118 169.34 310.854 170.28L310.227 164.977C311.489 165.341 312.804 165.393 314.084 165.128C315.364 164.863 316.58 164.289 317.65 163.443L309.555 160.316C309.273 160.236 309.013 160.077 308.798 159.854C308.21 159.13 308.794 158.001 309.273 157.177C310.418 155.207 310.61 151.963 308.727 150.982C307.442 150.313 305.967 151.116 304.733 151.902L298.825 155.668C298.637 156.951 300.011 157.679 300.862 158.544C301.377 159.067 301.741 159.756 301.907 160.52C302.073 161.284 302.033 162.088 301.792 162.826C301.551 163.563 301.121 164.201 300.557 164.654C299.994 165.107 299.324 165.354 298.635 165.364C299.024 165.942 299.294 166.613 299.426 167.327C299.557 168.04 299.547 168.779 299.395 169.487L295.419 169.814C294.973 169.917 294.51 169.813 294.13 169.526C293.705 169.095 293.762 168.338 293.664 167.698C293.426 166.153 292.102 165.07 290.752 164.793C289.401 164.515 288.019 164.871 286.681 165.222C286.113 165.456 285.489 165.44 284.931 165.176C284.612 164.939 284.368 164.588 284.239 164.178C283.653 162.552 284.201 160.642 285.143 159.252C286.085 157.862 287.374 156.846 288.532 155.689C291.301 152.912 293.336 149.305 294.406 145.276C296.594 144.228 298.86 142.804 301.048 141.756C304.422 139.803 308.206 138.965 311.974 139.336L319.385 139.498C321.579 139.546 323.833 139.607 325.862 140.564C327.891 141.52 329.674 143.588 329.814 146.091C329.856 146.375 329.835 146.666 329.752 146.937C329.668 147.208 329.526 147.451 329.339 147.642C329.052 147.821 328.728 147.905 328.402 147.884C326.355 147.966 325.483 148.549 323.436 148.631Z" fill="white"/>
<path d="M264.363 175.18C264.653 174.867 264.861 174.468 264.965 174.028C265.07 173.588 265.066 173.124 264.955 172.687C264.25 172.376 263.483 172.296 262.741 172.456C261.999 172.617 261.311 173.01 260.754 173.593C260.315 174.101 259.937 174.673 259.629 175.294C258.655 177.11 257.794 179.279 258.358 181.309C258.404 181.531 258.488 181.739 258.606 181.923C258.723 182.107 258.872 182.262 259.042 182.379C259.295 182.495 259.568 182.544 259.84 182.522C260.913 182.52 261.984 182.445 263.049 182.296C263.703 182.204 264.463 181.993 264.716 181.298C265.048 180.384 264.244 179.349 264.478 178.396C264.632 177.97 264.866 177.587 265.163 177.275C265.31 177.118 265.423 176.924 265.494 176.708C265.564 176.492 265.589 176.26 265.567 176.031C265.472 175.584 264.873 175.33 264.658 175.719" fill="white"/>
<path d="M269.926 166.936C268.973 166.686 267.991 166.615 267.018 166.727C266.803 166.72 266.59 166.775 266.398 166.888C266.213 167.044 266.079 167.267 266.016 167.52C265.811 168.274 265.861 169.089 266.158 169.802C266.454 170.515 266.975 171.075 267.616 171.369C267.965 171.461 268.3 171.614 268.608 171.824C269.431 172.554 268.906 174.045 269.062 175.222C269.237 176.543 270.356 177.652 270.151 178.968C269.989 180.004 269.02 180.825 269.176 181.862C269.34 182.949 270.546 183.276 271.508 183.363C272.065 183.474 272.639 183.399 273.16 183.146C273.682 182.738 274.053 182.124 274.202 181.421C274.596 180.082 274.761 178.668 274.689 177.258C274.685 176.616 274.544 175.985 274.279 175.42C273.989 174.972 273.668 174.552 273.319 174.164C271.476 171.714 273.416 168.06 269.926 166.936Z" fill="white"/>
<path opacity="0.8" d="M512.215 358.838C512.215 358.838 371.096 266.249 310.342 283.792C310.342 283.792 181.587 299.63 166.665 334.472C166.665 334.472 125.736 188.28 110.814 183.407" stroke="#6C63FF" stroke-width="1.18081" stroke-miterlimit="10"/>
<path opacity="0.8" d="M166.665 334.473C190.327 262.351 403.498 182.432 403.498 182.432C373.228 191.204 310.342 283.792 310.342 283.792C310.342 283.792 177.323 173.174 110.814 183.407C110.814 183.407 403.711 194.371 512.215 358.838" stroke="#6C63FF" stroke-width="1.18081" stroke-miterlimit="10"/>
<path d="M110.814 190.473C114.228 190.473 116.996 187.309 116.996 183.407C116.996 179.504 114.228 176.341 110.814 176.341C107.4 176.341 104.632 179.504 104.632 183.407C104.632 187.309 107.4 190.473 110.814 190.473Z" fill="#21214F"/>
<path d="M166.665 341.538C170.079 341.538 172.847 338.375 172.847 334.472C172.847 330.57 170.079 327.406 166.665 327.406C163.251 327.406 160.483 330.57 160.483 334.472C160.483 338.375 163.251 341.538 166.665 341.538Z" fill="#21214F"/>
<path d="M403.498 189.498C406.912 189.498 409.68 186.335 409.68 182.432C409.68 178.53 406.912 175.366 403.498 175.366C400.084 175.366 397.316 178.53 397.316 182.432C397.316 186.335 400.084 189.498 403.498 189.498Z" fill="#21214F"/>
<path d="M512.215 365.904C515.629 365.904 518.397 362.74 518.397 358.838C518.397 354.936 515.629 351.772 512.215 351.772C508.801 351.772 506.033 354.936 506.033 358.838C506.033 362.74 508.801 365.904 512.215 365.904Z" fill="#21214F"/>
<path d="M310.342 290.858C313.756 290.858 316.524 287.695 316.524 283.792C316.524 279.89 313.756 276.726 310.342 276.726C306.928 276.726 304.16 279.89 304.16 283.792C304.16 287.695 306.928 290.858 310.342 290.858Z" fill="#21214F"/>
</svg>
